<svg width="41" height="16" viewBox="0 0 41 16" fill="none" xmlns="http://www.w3.org/2000/svg">
<path d="M4.30078 12.1406C3.13281 12.1406 2.20508 11.748 1.51758 10.9629C0.833984 10.1738 0.492188 9.10938 0.492188 7.76953C0.492188 6.44141 0.837891 5.38281 1.5293 4.59375C2.2207 3.80078 3.14453 3.4043 4.30078 3.4043C5.22266 3.4043 6.00391 3.66211 6.64453 4.17773C7.28906 4.68945 7.67773 5.36719 7.81055 6.21094H6.74414C6.60742 5.65625 6.31641 5.21289 5.87109 4.88086C5.42578 4.54492 4.90234 4.37695 4.30078 4.37695C3.47656 4.37695 2.81641 4.68555 2.32031 5.30273C1.82422 5.91992 1.57617 6.74219 1.57617 7.76953C1.57617 8.80859 1.82227 9.63477 2.31445 10.248C2.80664 10.8613 3.4707 11.168 4.30664 11.168C4.92773 11.168 5.45117 11.0254 5.87695 10.7402C6.30273 10.4551 6.5918 10.0547 6.74414 9.53906H7.81055C7.61523 10.375 7.21484 11.0176 6.60938 11.4668C6.00391 11.916 5.23438 12.1406 4.30078 12.1406ZM9.7793 4.58203C10.4785 3.79688 11.4277 3.4043 12.627 3.4043C13.8262 3.4043 14.7754 3.79688 15.4746 4.58203C16.1738 5.36719 16.5234 6.43164 16.5234 7.77539C16.5234 9.11914 16.1738 10.1836 15.4746 10.9688C14.7754 11.75 13.8262 12.1406 12.627 12.1406C11.4277 12.1406 10.4785 11.75 9.7793 10.9688C9.08008 10.1836 8.73047 9.11914 8.73047 7.77539C8.73047 6.43164 9.08008 5.36719 9.7793 4.58203ZM14.6777 5.29688C14.1738 4.68359 13.4902 4.37695 12.627 4.37695C11.7637 4.37695 11.0781 4.68359 10.5703 5.29688C10.0664 5.90625 9.81445 6.73242 9.81445 7.77539C9.81445 8.81445 10.0664 9.64062 10.5703 10.2539C11.0781 10.8633 11.7637 11.168 12.627 11.168C13.4902 11.168 14.1738 10.8633 14.6777 10.2539C15.1855 9.64062 15.4395 8.81445 15.4395 7.77539C15.4395 6.73242 15.1855 5.90625 14.6777 5.29688Z" fill="#B4CCBA"/>
<path d="M17.2793 11.3613C17.2793 10.9707 17.4199 10.6543 17.7012 10.4121C17.9863 10.166 18.3555 10.043 18.8086 10.043C19.2461 10.043 19.6016 10.1523 19.875 10.3711C20.1484 10.5898 20.2852 10.873 20.2852 11.2207C20.2852 11.4277 20.2305 11.625 20.1211 11.8125C20.0117 12 19.8184 12.2246 19.541 12.4863L18.5742 13.3945V13.4121H20.3379V14.1504H17.332V13.5176L18.8789 12.0703C19.0625 11.8906 19.1895 11.7441 19.2598 11.6309C19.3301 11.5137 19.3652 11.3965 19.3652 11.2793C19.3652 11.127 19.3086 11.0039 19.1953 10.9102C19.0859 10.8125 18.9434 10.7637 18.7676 10.7637C18.5918 10.7637 18.4453 10.8203 18.3281 10.9336C18.2109 11.0469 18.1523 11.1895 18.1523 11.3613V11.3789H17.2793V11.3613Z" fill="#A9ACA8"/>
<path d="M36.233 4.56667L37.193 5.52667L33.9397 8.78L31.7463 6.58667C31.4863 6.32667 31.0663 6.32667 30.8063 6.58667L26.8063 10.5933C26.5463 10.8533 26.5463 11.2733 26.8063 11.5333C27.0663 11.7933 27.4863 11.7933 27.7463 11.5333L31.273 8L33.4663 10.1933C33.7263 10.4533 34.1463 10.4533 34.4063 10.1933L38.133 6.47333L39.093 7.43333C39.2997 7.64 39.6597 7.49333 39.6597 7.2V4.33333C39.6663 4.14667 39.5197 4 39.333 4H36.473C36.173 4 36.0263 4.36 36.233 4.56667Z" fill="#B4CCBA"/>
</svg>
