<svg width="33" height="16" viewBox="0 0 33 16" fill="none" xmlns="http://www.w3.org/2000/svg">
<path d="M1.54102 4.58203C2.24023 3.79688 3.18945 3.4043 4.38867 3.4043C5.58789 3.4043 6.53711 3.79688 7.23633 4.58203C7.93555 5.36719 8.28516 6.43164 8.28516 7.77539C8.28516 9.11914 7.93555 10.1836 7.23633 10.9688C6.53711 11.75 5.58789 12.1406 4.38867 12.1406C3.18945 12.1406 2.24023 11.75 1.54102 10.9688C0.841797 10.1836 0.492188 9.11914 0.492188 7.77539C0.492188 6.43164 0.841797 5.36719 1.54102 4.58203ZM6.43945 5.29688C5.93555 4.68359 5.25195 4.37695 4.38867 4.37695C3.52539 4.37695 2.83984 4.68359 2.33203 5.29688C1.82812 5.90625 1.57617 6.73242 1.57617 7.77539C1.57617 8.81445 1.82812 9.64062 2.33203 10.2539C2.83984 10.8633 3.52539 11.168 4.38867 11.168C5.25195 11.168 5.93555 10.8633 6.43945 10.2539C6.94727 9.64062 7.20117 8.81445 7.20117 7.77539C7.20117 6.73242 6.94727 5.90625 6.43945 5.29688Z" fill="#B4CCBA"/>
<path d="M9.04102 11.3613C9.04102 10.9707 9.18164 10.6543 9.46289 10.4121C9.74805 10.166 10.1172 10.043 10.5703 10.043C11.0078 10.043 11.3633 10.1523 11.6367 10.3711C11.9102 10.5898 12.0469 10.873 12.0469 11.2207C12.0469 11.4277 11.9922 11.625 11.8828 11.8125C11.7734 12 11.5801 12.2246 11.3027 12.4863L10.3359 13.3945V13.4121H12.0996V14.1504H9.09375V13.5176L10.6406 12.0703C10.8242 11.8906 10.9512 11.7441 11.0215 11.6309C11.0918 11.5137 11.127 11.3965 11.127 11.2793C11.127 11.127 11.0703 11.0039 10.957 10.9102C10.8477 10.8125 10.7051 10.7637 10.5293 10.7637C10.3535 10.7637 10.207 10.8203 10.0898 10.9336C9.97266 11.0469 9.91406 11.1895 9.91406 11.3613V11.3789H9.04102V11.3613Z" fill="#A9ACA8"/>
<path d="M28.233 4.56667L29.193 5.52667L25.9397 8.78L23.7463 6.58667C23.4863 6.32667 23.0663 6.32667 22.8063 6.58667L18.8063 10.5933C18.5463 10.8533 18.5463 11.2733 18.8063 11.5333C19.0663 11.7933 19.4863 11.7933 19.7463 11.5333L23.273 8L25.4663 10.1933C25.7263 10.4533 26.1463 10.4533 26.4063 10.1933L30.133 6.47333L31.093 7.43333C31.2997 7.64 31.6597 7.49333 31.6597 7.2V4.33333C31.6663 4.14667 31.5197 4 31.333 4H28.473C28.173 4 28.0263 4.36 28.233 4.56667Z" fill="#B4CCBA"/>
</svg>
