<svg width="375" height="151" viewBox="0 0 375 151" fill="none" xmlns="http://www.w3.org/2000/svg">
<g filter="url(#filter0_dd_153_5638)">
<path fill-rule="evenodd" clip-rule="evenodd" d="M152.775 53.6863C149.774 50.6857 145.704 49 141.461 49H8C3.58172 49 0 52.5817 0 57V138C0 138.552 0.44771 139 0.999995 139H374C374.552 139 375 138.552 375 138V57C375 52.5817 371.418 49 367 49H234.362C230.119 49 226.049 50.6857 223.049 53.6863L199.225 77.5097C192.977 83.758 182.846 83.758 176.598 77.5097L152.775 53.6863Z" fill="#191C1A"/>
<path fill-rule="evenodd" clip-rule="evenodd" d="M152.775 53.6863C149.774 50.6857 145.704 49 141.461 49H8C3.58172 49 0 52.5817 0 57V138C0 138.552 0.44771 139 0.999995 139H374C374.552 139 375 138.552 375 138V57C375 52.5817 371.418 49 367 49H234.362C230.119 49 226.049 50.6857 223.049 53.6863L199.225 77.5097C192.977 83.758 182.846 83.758 176.598 77.5097L152.775 53.6863Z" fill="#6CDCA0" fill-opacity="0.14"/>
</g>
<path d="M254.64 87.7354V90.4355H256.324C256.777 90.4355 257.125 90.3184 257.369 90.084C257.617 89.8496 257.74 89.516 257.74 89.083C257.74 88.6598 257.612 88.3294 257.354 88.0918C257.097 87.8542 256.741 87.7354 256.285 87.7354H254.64ZM254.64 91.2119V94H253.761V86.9541H256.402C257.083 86.9541 257.626 87.1462 258.033 87.5303C258.443 87.9111 258.648 88.4189 258.648 89.0537C258.648 89.5452 258.523 89.9701 258.272 90.3281C258.022 90.6862 257.675 90.9352 257.232 91.0752L258.863 94H257.833L256.324 91.2119H254.64ZM261.7 93.3652C262.1 93.3652 262.435 93.2415 262.706 92.9941C262.979 92.7435 263.116 92.4359 263.116 92.0713V91.6562L261.758 91.7393C261.417 91.762 261.151 91.8451 260.963 91.9883C260.777 92.1315 260.684 92.3236 260.684 92.5645C260.684 92.8053 260.777 92.999 260.963 93.1455C261.148 93.292 261.394 93.3652 261.7 93.3652ZM261.509 94.0879C261.005 94.0879 260.596 93.9479 260.284 93.668C259.975 93.388 259.82 93.0202 259.82 92.5645C259.82 92.1283 259.979 91.7799 260.298 91.5195C260.621 91.2591 261.075 91.1126 261.661 91.0801L263.116 90.9971V90.5723C263.116 90.263 263.018 90.0205 262.823 89.8447C262.628 89.6689 262.354 89.5811 262.003 89.5811C261.68 89.5811 261.418 89.6527 261.216 89.7959C261.015 89.9359 260.886 90.1328 260.831 90.3867H260.01C260.04 89.9342 260.235 89.5632 260.596 89.2734C260.961 88.9805 261.436 88.834 262.022 88.834C262.618 88.834 263.09 88.9837 263.438 89.2832C263.79 89.5827 263.965 89.9847 263.965 90.4893V94H263.16V93.126H263.14C262.987 93.4157 262.763 93.6484 262.466 93.8242C262.17 94 261.851 94.0879 261.509 94.0879ZM265.718 87.6963H266.568V88.9219H267.554V89.6201H266.568V92.6377C266.568 92.8688 266.618 93.0397 266.719 93.1504C266.82 93.2578 266.979 93.3115 267.197 93.3115C267.334 93.3115 267.451 93.3034 267.549 93.2871V94C267.438 94.026 267.259 94.0391 267.012 94.0391C266.546 94.0391 266.214 93.9349 266.016 93.7266C265.817 93.5182 265.718 93.1699 265.718 92.6816V89.6201H264.961V88.9219H265.718V87.6963ZM268.906 94V88.9219H269.756V94H268.906ZM269.331 88.0674C269.188 88.0674 269.064 88.0153 268.96 87.9111C268.856 87.807 268.804 87.6833 268.804 87.54C268.804 87.3936 268.856 87.2699 268.96 87.1689C269.064 87.0648 269.188 87.0127 269.331 87.0127C269.477 87.0127 269.603 87.0648 269.707 87.1689C269.811 87.2699 269.863 87.3936 269.863 87.54C269.863 87.6833 269.811 87.807 269.707 87.9111C269.603 88.0153 269.477 88.0674 269.331 88.0674ZM271.303 94V88.9219H272.104V89.7324H272.123C272.27 89.4492 272.48 89.2295 272.753 89.0732C273.027 88.9137 273.354 88.834 273.735 88.834C274.288 88.834 274.719 89.0016 275.029 89.3369C275.338 89.6689 275.493 90.1247 275.493 90.7041V94H274.643V90.8555C274.643 90.4421 274.545 90.1279 274.35 89.9131C274.155 89.695 273.863 89.5859 273.476 89.5859C273.076 89.5859 272.755 89.7161 272.514 89.9766C272.273 90.237 272.153 90.582 272.153 91.0117V94H271.303ZM279.042 93.292C279.485 93.292 279.841 93.1227 280.111 92.7842C280.382 92.4456 280.517 91.998 280.517 91.4414C280.517 90.8815 280.382 90.4323 280.111 90.0938C279.841 89.752 279.485 89.5811 279.042 89.5811C278.603 89.5811 278.251 89.7503 277.987 90.0889C277.727 90.4242 277.597 90.875 277.597 91.4414C277.597 92.0078 277.727 92.4587 277.987 92.7939C278.251 93.126 278.603 93.292 279.042 93.292ZM279.071 95.9141C278.515 95.9141 278.036 95.7725 277.636 95.4893C277.235 95.2093 276.999 94.8529 276.928 94.4199H277.802C277.886 94.6543 278.046 94.8415 278.28 94.9814C278.515 95.1214 278.79 95.1914 279.105 95.1914C279.542 95.1914 279.885 95.0758 280.136 94.8447C280.39 94.6136 280.517 94.3076 280.517 93.9268V93.126H280.497C280.338 93.4059 280.115 93.6289 279.828 93.7949C279.542 93.9577 279.223 94.0391 278.871 94.0391C278.223 94.0391 277.704 93.8031 277.313 93.3311C276.923 92.859 276.728 92.2292 276.728 91.4414C276.728 90.6471 276.923 90.014 277.313 89.542C277.707 89.07 278.233 88.834 278.891 88.834C279.249 88.834 279.571 88.917 279.857 89.083C280.144 89.249 280.372 89.4801 280.541 89.7764H280.556V88.9219H281.366V93.8975C281.366 94.5062 281.158 94.9945 280.741 95.3623C280.325 95.7301 279.768 95.9141 279.071 95.9141Z" fill="#B4CCBA"/>
<path fill-rule="evenodd" clip-rule="evenodd" d="M267 74.05C267.159 74.05 267.318 74.088 267.463 74.163L271.232 76.133L270.515 71.976C270.458 71.65 270.567 71.318 270.805 71.087L273.841 68.151L269.638 67.539C269.313 67.492 269.032 67.289 268.886 66.995L267 63.201L265.114 66.995C264.968 67.289 264.687 67.492 264.362 67.539L260.159 68.151L263.195 71.087C263.433 71.318 263.542 71.65 263.485 71.976L262.768 76.133L266.537 74.163C266.682 74.088 266.841 74.05 267 74.05ZM272.562 78.955C272.403 78.955 272.244 78.918 272.099 78.842L267 76.178L261.901 78.842C261.563 79.018 261.155 78.987 260.85 78.763C260.542 78.539 260.389 78.16 260.453 77.785L261.425 72.157L257.305 68.172C257.03 67.907 256.932 67.509 257.049 67.146C257.165 66.783 257.479 66.519 257.856 66.464L263.557 65.636L266.104 60.51C266.442 59.83 267.558 59.83 267.896 60.51L270.443 65.636L276.144 66.464C276.521 66.519 276.835 66.783 276.951 67.146C277.068 67.509 276.97 67.907 276.695 68.172L272.575 72.157L273.547 77.785C273.611 78.16 273.458 78.539 273.15 78.763C272.977 78.891 272.77 78.955 272.562 78.955Z" fill="#B4CCBA"/>
<path d="M332.893 86.9541H335.407C336.068 86.9541 336.609 87.1657 337.029 87.5889C337.452 88.0088 337.663 88.5508 337.663 89.2148C337.663 89.8822 337.452 90.4274 337.029 90.8506C336.605 91.2738 336.062 91.4854 335.398 91.4854H333.772V94H332.893V86.9541ZM333.772 87.7354V90.7041H335.178C335.679 90.7041 336.068 90.5739 336.345 90.3135C336.622 90.0498 336.76 89.6836 336.76 89.2148C336.76 88.7461 336.622 88.3831 336.345 88.126C336.071 87.8656 335.682 87.7354 335.178 87.7354H333.772ZM338.942 94V88.9219H339.743V89.752H339.763C339.847 89.4688 339.999 89.2458 340.217 89.083C340.438 88.917 340.697 88.834 340.993 88.834C341.061 88.834 341.175 88.8454 341.335 88.8682V89.6934C341.244 89.6608 341.092 89.6445 340.881 89.6445C340.552 89.6445 340.288 89.7536 340.09 89.9717C339.891 90.1898 339.792 90.4779 339.792 90.8359V94H338.942ZM344.288 94.0879C343.579 94.0879 343.009 93.8519 342.579 93.3799C342.15 92.9046 341.935 92.265 341.935 91.4609C341.935 90.6569 342.15 90.0189 342.579 89.5469C343.009 89.0716 343.579 88.834 344.288 88.834C344.995 88.834 345.563 89.0716 345.993 89.5469C346.422 90.0189 346.637 90.6569 346.637 91.4609C346.637 92.2617 346.422 92.8997 345.993 93.375C345.563 93.8503 344.995 94.0879 344.288 94.0879ZM343.2 92.8428C343.47 93.1748 343.833 93.3408 344.288 93.3408C344.744 93.3408 345.106 93.1764 345.372 92.8477C345.639 92.5156 345.773 92.0534 345.773 91.4609C345.773 90.8685 345.639 90.4079 345.372 90.0791C345.106 89.7471 344.744 89.5811 344.288 89.5811C343.833 89.5811 343.47 89.7471 343.2 90.0791C342.933 90.4111 342.799 90.8717 342.799 91.4609C342.799 92.0501 342.933 92.5107 343.2 92.8428ZM348.17 94V89.6201H347.462V88.9219H348.17V88.3555C348.17 87.8672 348.284 87.5059 348.512 87.2715C348.743 87.0339 349.093 86.915 349.562 86.915C349.744 86.915 349.916 86.9281 350.079 86.9541V87.6426C349.942 87.623 349.814 87.6133 349.693 87.6133C349.241 87.6133 349.015 87.8623 349.015 88.3604V88.9219H350.055V89.6201H349.02V94H348.17ZM351.378 94V88.9219H352.227V94H351.378ZM351.802 88.0674C351.659 88.0674 351.535 88.0153 351.431 87.9111C351.327 87.807 351.275 87.6833 351.275 87.54C351.275 87.3936 351.327 87.2699 351.431 87.1689C351.535 87.0648 351.659 87.0127 351.802 87.0127C351.949 87.0127 352.074 87.0648 352.178 87.1689C352.282 87.2699 352.335 87.3936 352.335 87.54C352.335 87.6833 352.282 87.807 352.178 87.9111C352.074 88.0153 351.949 88.0674 351.802 88.0674ZM353.819 94V86.9541H354.668V94H353.819ZM358.252 89.5713C357.858 89.5713 357.531 89.708 357.27 89.9814C357.013 90.2516 356.872 90.5999 356.846 91.0264H359.604C359.595 90.5967 359.466 90.2467 359.219 89.9766C358.971 89.7064 358.649 89.5713 358.252 89.5713ZM359.585 92.5449H360.42C360.345 92.9941 360.11 93.3636 359.717 93.6533C359.326 93.943 358.856 94.0879 358.305 94.0879C357.58 94.0879 357.008 93.8535 356.592 93.3848C356.175 92.916 355.967 92.2812 355.967 91.4805C355.967 90.6862 356.175 90.0465 356.592 89.5615C357.012 89.0765 357.57 88.834 358.266 88.834C358.95 88.834 359.49 89.0635 359.888 89.5225C360.285 89.9814 360.483 90.5967 360.483 91.3682V91.6904H356.841V91.7393C356.841 92.2275 356.974 92.6182 357.241 92.9111C357.508 93.2041 357.869 93.3506 358.325 93.3506C358.644 93.3506 358.916 93.2773 359.14 93.1309C359.365 92.9844 359.513 92.7891 359.585 92.5449Z" fill="#B4CCBA"/>
<path fill-rule="evenodd" clip-rule="evenodd" d="M348 65C348 63.897 347.103 63 346 63C344.897 63 344 63.897 344 65C344 66.103 344.897 67 346 67C347.103 67 348 66.103 348 65ZM350 65C350 67.206 348.206 69 346 69C343.794 69 342 67.206 342 65C342 62.794 343.794 61 346 61C348.206 61 350 62.794 350 65ZM339 78C339 74.14 342.141 71 346 71C349.859 71 353 74.14 353 78C353 78.552 352.553 79 352 79C351.447 79 351 78.552 351 78C351 75.243 348.757 73 346 73C343.243 73 341 75.243 341 78C341 78.552 340.553 79 340 79C339.447 79 339 78.552 339 78Z" fill="#B4CCBA"/>
<g filter="url(#filter1_dd_153_5638)">
<rect x="148" y="41.5981" width="56" height="56" rx="16" transform="rotate(-45 148 41.5981)" fill="#BFE9F8"/>
<path fill-rule="evenodd" clip-rule="evenodd" d="M195 41H189V35C189 34.447 188.552 34 188 34C187.448 34 187 34.447 187 35V41H181C180.448 41 180 41.447 180 42C180 42.553 180.448 43 181 43H187V49C187 49.553 187.448 50 188 50C188.552 50 189 49.553 189 49V43H195C195.552 43 196 42.553 196 42C196 41.447 195.552 41 195 41" fill="#033541"/>
</g>
<path d="M93.6836 92.0615H94.5674C94.6097 92.4424 94.7952 92.7484 95.124 92.9795C95.4561 93.2106 95.8743 93.3262 96.3789 93.3262C96.8542 93.3262 97.2464 93.2139 97.5557 92.9893C97.8682 92.7614 98.0244 92.4749 98.0244 92.1299C98.0244 91.8337 97.9154 91.5895 97.6973 91.3975C97.4824 91.2054 97.1374 91.0475 96.6621 90.9238L95.7588 90.6895C95.1077 90.5234 94.6325 90.2923 94.333 89.9961C94.0335 89.6966 93.8838 89.3076 93.8838 88.8291C93.8838 88.2432 94.1149 87.7646 94.5771 87.3936C95.0426 87.0225 95.6416 86.8369 96.374 86.8369C97.0739 86.8369 97.6533 87.0257 98.1123 87.4033C98.5713 87.7777 98.8105 88.2594 98.8301 88.8486H97.9512C97.9121 88.471 97.7493 88.1732 97.4629 87.9551C97.1764 87.737 96.8037 87.6279 96.3447 87.6279C95.889 87.6279 95.5163 87.7354 95.2266 87.9502C94.9401 88.165 94.7969 88.445 94.7969 88.79C94.7969 89.057 94.901 89.2767 95.1094 89.4492C95.321 89.6185 95.666 89.765 96.1445 89.8887L96.8818 90.084C97.611 90.2663 98.1351 90.5088 98.4541 90.8115C98.7731 91.1143 98.9326 91.5179 98.9326 92.0225C98.9326 92.667 98.695 93.1781 98.2197 93.5557C97.7477 93.93 97.1064 94.1172 96.2959 94.1172C95.5472 94.1172 94.9352 93.93 94.46 93.5557C93.9847 93.1813 93.7259 92.6833 93.6836 92.0615ZM102.262 89.5713C101.868 89.5713 101.541 89.708 101.281 89.9814C101.024 90.2516 100.882 90.5999 100.856 91.0264H103.615C103.605 90.5967 103.476 90.2467 103.229 89.9766C102.982 89.7064 102.659 89.5713 102.262 89.5713ZM103.595 92.5449H104.43C104.355 92.9941 104.121 93.3636 103.727 93.6533C103.337 93.943 102.866 94.0879 102.316 94.0879C101.59 94.0879 101.019 93.8535 100.602 93.3848C100.185 92.916 99.9771 92.2812 99.9771 91.4805C99.9771 90.6862 100.185 90.0465 100.602 89.5615C101.022 89.0765 101.58 88.834 102.277 88.834C102.961 88.834 103.501 89.0635 103.898 89.5225C104.295 89.9814 104.494 90.5967 104.494 91.3682V91.6904H100.851V91.7393C100.851 92.2275 100.985 92.6182 101.252 92.9111C101.518 93.2041 101.88 93.3506 102.336 93.3506C102.655 93.3506 102.926 93.2773 103.151 93.1309C103.376 92.9844 103.524 92.7891 103.595 92.5449ZM107.428 93.3652C107.828 93.3652 108.164 93.2415 108.434 92.9941C108.707 92.7435 108.844 92.4359 108.844 92.0713V91.6562L107.487 91.7393C107.145 91.762 106.879 91.8451 106.691 91.9883C106.505 92.1315 106.412 92.3236 106.412 92.5645C106.412 92.8053 106.505 92.999 106.691 93.1455C106.876 93.292 107.122 93.3652 107.428 93.3652ZM107.238 94.0879C106.733 94.0879 106.324 93.9479 106.012 93.668C105.703 93.388 105.548 93.0202 105.548 92.5645C105.548 92.1283 105.708 91.7799 106.027 91.5195C106.349 91.2591 106.803 91.1126 107.389 91.0801L108.844 90.9971V90.5723C108.844 90.263 108.746 90.0205 108.551 89.8447C108.356 89.6689 108.082 89.5811 107.731 89.5811C107.408 89.5811 107.146 89.6527 106.945 89.7959C106.743 89.9359 106.614 90.1328 106.559 90.3867H105.738C105.768 89.9342 105.963 89.5632 106.324 89.2734C106.689 88.9805 107.164 88.834 107.75 88.834C108.346 88.834 108.818 88.9837 109.166 89.2832C109.518 89.5827 109.694 89.9847 109.694 90.4893V94H108.888V93.126H108.868C108.715 93.4157 108.491 93.6484 108.195 93.8242C107.898 94 107.579 94.0879 107.238 94.0879ZM111.173 94V88.9219H111.973V89.752H111.993C112.078 89.4688 112.229 89.2458 112.447 89.083C112.668 88.917 112.927 88.834 113.223 88.834C113.292 88.834 113.406 88.8454 113.565 88.8682V89.6934C113.474 89.6608 113.323 89.6445 113.111 89.6445C112.782 89.6445 112.519 89.7536 112.32 89.9717C112.122 90.1898 112.022 90.4779 112.022 90.8359V94H111.173ZM118.633 90.5869H117.803C117.738 90.2939 117.593 90.0531 117.369 89.8643C117.147 89.6755 116.859 89.5811 116.504 89.5811C116.062 89.5811 115.705 89.752 115.435 90.0938C115.165 90.4323 115.03 90.888 115.03 91.4609C115.03 92.0436 115.165 92.5026 115.435 92.8379C115.708 93.1732 116.068 93.3408 116.514 93.3408C116.856 93.3408 117.137 93.2562 117.359 93.0869C117.583 92.9144 117.733 92.6735 117.808 92.3643H118.643C118.578 92.8721 118.348 93.2871 117.954 93.6094C117.564 93.9284 117.082 94.0879 116.509 94.0879C115.8 94.0879 115.232 93.8535 114.805 93.3848C114.379 92.9128 114.165 92.2715 114.165 91.4609C114.165 90.6634 114.379 90.027 114.805 89.5518C115.232 89.0732 115.796 88.834 116.499 88.834C117.105 88.834 117.596 89.0049 117.974 89.3467C118.355 89.6885 118.575 90.1019 118.633 90.5869ZM119.868 94V86.9541H120.718V89.7324H120.737C120.881 89.446 121.089 89.2246 121.362 89.0684C121.639 88.9121 121.968 88.834 122.349 88.834C122.902 88.834 123.338 89.0049 123.657 89.3467C123.976 89.6885 124.136 90.1458 124.136 90.7188V94H123.286V90.875C123.286 90.4648 123.184 90.1475 122.979 89.9229C122.777 89.6982 122.479 89.5859 122.085 89.5859C121.665 89.5859 121.331 89.7178 121.084 89.9814C120.84 90.2451 120.718 90.5983 120.718 91.041V94H119.868Z" fill="#B4CCBA"/>
<path fill-rule="evenodd" clip-rule="evenodd" d="M102 69C102 65.691 104.691 63 108 63C111.309 63 114 65.691 114 69C114 72.309 111.309 75 108 75C104.691 75 102 72.309 102 69ZM117.707 77.293L114.312 73.897C115.365 72.543 116 70.846 116 69C116 64.589 112.411 61 108 61C103.589 61 100 64.589 100 69C100 73.411 103.589 77 108 77C109.846 77 111.543 76.365 112.897 75.312L116.293 78.707C116.488 78.902 116.744 79 117 79C117.256 79 117.512 78.902 117.707 78.707C118.098 78.316 118.098 77.684 117.707 77.293Z" fill="#B4CCBA"/>
<path d="M177.817 86.9541H180.332C180.993 86.9541 181.533 87.1657 181.953 87.5889C182.376 88.0088 182.588 88.5508 182.588 89.2148C182.588 89.8822 182.376 90.4274 181.953 90.8506C181.53 91.2738 180.986 91.4854 180.322 91.4854H178.696V94H177.817V86.9541ZM178.696 87.7354V90.7041H180.102C180.604 90.7041 180.993 90.5739 181.269 90.3135C181.546 90.0498 181.684 89.6836 181.684 89.2148C181.684 88.7461 181.546 88.3831 181.269 88.126C180.996 87.8656 180.607 87.7354 180.102 87.7354H178.696ZM183.911 94V86.9541H184.76V94H183.911ZM187.982 93.3652C188.383 93.3652 188.718 93.2415 188.988 92.9941C189.262 92.7435 189.398 92.4359 189.398 92.0713V91.6562L188.041 91.7393C187.699 91.762 187.434 91.8451 187.245 91.9883C187.06 92.1315 186.967 92.3236 186.967 92.5645C186.967 92.8053 187.06 92.999 187.245 93.1455C187.431 93.292 187.676 93.3652 187.982 93.3652ZM187.792 94.0879C187.287 94.0879 186.879 93.9479 186.566 93.668C186.257 93.388 186.103 93.0202 186.103 92.5645C186.103 92.1283 186.262 91.7799 186.581 91.5195C186.903 91.2591 187.357 91.1126 187.943 91.0801L189.398 90.9971V90.5723C189.398 90.263 189.301 90.0205 189.105 89.8447C188.91 89.6689 188.637 89.5811 188.285 89.5811C187.963 89.5811 187.701 89.6527 187.499 89.7959C187.297 89.9359 187.169 90.1328 187.113 90.3867H186.293C186.322 89.9342 186.518 89.5632 186.879 89.2734C187.243 88.9805 187.719 88.834 188.305 88.834C188.9 88.834 189.372 88.9837 189.721 89.2832C190.072 89.5827 190.248 89.9847 190.248 90.4893V94H189.442V93.126H189.423C189.27 93.4157 189.045 93.6484 188.749 93.8242C188.453 94 188.134 94.0879 187.792 94.0879ZM191.727 94V88.9219H192.528V89.7324H192.547C192.694 89.4492 192.904 89.2295 193.177 89.0732C193.451 88.9137 193.778 88.834 194.159 88.834C194.712 88.834 195.143 89.0016 195.453 89.3369C195.762 89.6689 195.917 90.1247 195.917 90.7041V94H195.067V90.8555C195.067 90.4421 194.969 90.1279 194.774 89.9131C194.579 89.695 194.287 89.5859 193.9 89.5859C193.5 89.5859 193.179 89.7161 192.938 89.9766C192.697 90.237 192.577 90.582 192.577 91.0117V94H191.727ZM197.674 87.6963H198.524V88.9219H199.51V89.6201H198.524V92.6377C198.524 92.8688 198.574 93.0397 198.675 93.1504C198.776 93.2578 198.935 93.3115 199.154 93.3115C199.29 93.3115 199.407 93.3034 199.505 93.2871V94C199.394 94.026 199.215 94.0391 198.968 94.0391C198.502 94.0391 198.17 93.9349 197.972 93.7266C197.773 93.5182 197.674 93.1699 197.674 92.6816V89.6201H196.917V88.9219H197.674V87.6963Z" fill="#B4CCBA"/>
<path d="M23.4742 94H22.5953V90.792H18.7281V94H17.8492V86.9541H18.7281V90.001H22.5953V86.9541H23.4742V94ZM27.2141 94.0879C26.5044 94.0879 25.9348 93.8519 25.5051 93.3799C25.0754 92.9046 24.8605 92.265 24.8605 91.4609C24.8605 90.6569 25.0754 90.0189 25.5051 89.5469C25.9348 89.0716 26.5044 88.834 27.2141 88.834C27.9204 88.834 28.4885 89.0716 28.9182 89.5469C29.3479 90.0189 29.5627 90.6569 29.5627 91.4609C29.5627 92.2617 29.3479 92.8997 28.9182 93.375C28.4885 93.8503 27.9204 94.0879 27.2141 94.0879ZM26.1252 92.8428C26.3954 93.1748 26.7583 93.3408 27.2141 93.3408C27.6698 93.3408 28.0311 93.1764 28.298 92.8477C28.565 92.5156 28.6984 92.0534 28.6984 91.4609C28.6984 90.8685 28.565 90.4079 28.298 90.0791C28.0311 89.7471 27.6698 89.5811 27.2141 89.5811C26.7583 89.5811 26.3954 89.7471 26.1252 90.0791C25.8583 90.4111 25.7248 90.8717 25.7248 91.4609C25.7248 92.0501 25.8583 92.5107 26.1252 92.8428ZM30.8221 94V88.9219H31.6229V89.7324H31.6424C31.7661 89.4557 31.9533 89.2376 32.2039 89.0781C32.4546 88.9154 32.7475 88.834 33.0828 88.834C33.4279 88.834 33.7241 88.9186 33.9715 89.0879C34.2189 89.2539 34.3979 89.4915 34.5086 89.8008H34.5281C34.6681 89.498 34.8781 89.262 35.158 89.0928C35.4412 88.9202 35.7618 88.834 36.1199 88.834C36.6212 88.834 37.0216 88.9854 37.3211 89.2881C37.6238 89.5876 37.7752 89.9896 37.7752 90.4941V94H36.9256V90.6895C36.9256 90.3411 36.8328 90.071 36.6473 89.8789C36.465 89.6836 36.2062 89.5859 35.8709 89.5859C35.5356 89.5859 35.2605 89.6982 35.0457 89.9229C34.8309 90.1442 34.7234 90.4274 34.7234 90.7725V94H33.8738V90.5967C33.8738 90.2907 33.7794 90.0465 33.5906 89.8643C33.4018 89.6787 33.1495 89.5859 32.8338 89.5859C32.4985 89.5859 32.2202 89.7031 31.9988 89.9375C31.7807 90.1719 31.6717 90.4648 31.6717 90.8164V94H30.8221ZM41.2953 89.5713C40.9014 89.5713 40.5743 89.708 40.3139 89.9814C40.0567 90.2516 39.9151 90.5999 39.8891 91.0264H42.6479C42.6381 90.5967 42.5095 90.2467 42.2621 89.9766C42.0147 89.7064 41.6924 89.5713 41.2953 89.5713ZM42.6283 92.5449H43.4633C43.3884 92.9941 43.154 93.3636 42.7602 93.6533C42.3695 93.943 41.8992 94.0879 41.349 94.0879C40.6231 94.0879 40.0518 93.8535 39.6352 93.3848C39.2185 92.916 39.0102 92.2812 39.0102 91.4805C39.0102 90.6862 39.2185 90.0465 39.6352 89.5615C40.0551 89.0765 40.6133 88.834 41.31 88.834C41.9936 88.834 42.5339 89.0635 42.9311 89.5225C43.3282 89.9814 43.5268 90.5967 43.5268 91.3682V91.6904H39.8842V91.7393C39.8842 92.2275 40.0176 92.6182 40.2846 92.9111C40.5515 93.2041 40.9128 93.3506 41.3686 93.3506C41.6876 93.3506 41.9594 93.2773 42.184 93.1309C42.4086 92.9844 42.5567 92.7891 42.6283 92.5449Z" fill="#88F9BA"/>
<path fill-rule="evenodd" clip-rule="evenodd" d="M30.715 60.3005L38.424 68.1845C38.79 68.5605 39 69.0845 39 69.6235V77.9995C39 79.1025 38.153 79.9995 37.112 79.9995H34V70.9995C34 70.4475 33.553 69.9995 33 69.9995H27C26.447 69.9995 26 70.4475 26 70.9995V79.9995H22.889C21.848 79.9995 21 79.1025 21 77.9995V69.6235C21 69.0845 21.21 68.5605 21.575 68.1855L29.285 60.3005C29.662 59.9155 30.338 59.9155 30.715 60.3005ZM32.0002 78.9999H28.0002V71.9999H32.0002V78.9999Z" fill="#88F9BA"/>
<defs>
<filter id="filter0_dd_153_5638" x="-8" y="45" width="391" height="106" filterUnits="userSpaceOnUse" color-interpolation-filters="sRGB">
<feFlood flood-opacity="0" result="BackgroundImageFix"/>
<feColorMatrix in="SourceAlpha" type="matrix" values="0 0 0 0 0 0 0 0 0 0 0 0 0 0 0 0 0 0 127 0" result="hardAlpha"/>
<feOffset dy="4"/>
<feGaussianBlur stdDeviation="4"/>
<feColorMatrix type="matrix" values="0 0 0 0 0.203922 0 0 0 0 0.235294 0 0 0 0 0.266667 0 0 0 0.16 0"/>
<feBlend mode="normal" in2="BackgroundImageFix" result="effect1_dropShadow_153_5638"/>
<feColorMatrix in="SourceAlpha" type="matrix" values="0 0 0 0 0 0 0 0 0 0 0 0 0 0 0 0 0 0 127 0" result="hardAlpha"/>
<feOffset/>
<feGaussianBlur stdDeviation="1"/>
<feColorMatrix type="matrix" values="0 0 0 0 0.458824 0 0 0 0 0.513726 0 0 0 0 0.556863 0 0 0 0.04 0"/>
<feBlend mode="normal" in2="effect1_dropShadow_153_5638" result="effect2_dropShadow_153_5638"/>
<feBlend mode="normal" in="SourceGraphic" in2="effect2_dropShadow_153_5638" result="shape"/>
</filter>
<filter id="filter1_dd_153_5638" x="130.627" y="0.627441" width="113.941" height="113.941" filterUnits="userSpaceOnUse" color-interpolation-filters="sRGB">
<feFlood flood-opacity="0" result="BackgroundImageFix"/>
<feColorMatrix in="SourceAlpha" type="matrix" values="0 0 0 0 0 0 0 0 0 0 0 0 0 0 0 0 0 0 127 0" result="hardAlpha"/>
<feOffset dy="16"/>
<feGaussianBlur stdDeviation="12"/>
<feColorMatrix type="matrix" values="0 0 0 0 0.203922 0 0 0 0 0.235294 0 0 0 0 0.266667 0 0 0 0.12 0"/>
<feBlend mode="normal" in2="BackgroundImageFix" result="effect1_dropShadow_153_5638"/>
<feColorMatrix in="SourceAlpha" type="matrix" values="0 0 0 0 0 0 0 0 0 0 0 0 0 0 0 0 0 0 127 0" result="hardAlpha"/>
<feOffset dy="2"/>
<feGaussianBlur stdDeviation="4"/>
<feColorMatrix type="matrix" values="0 0 0 0 0.458824 0 0 0 0 0.513726 0 0 0 0 0.556863 0 0 0 0.04 0"/>
<feBlend mode="normal" in2="effect1_dropShadow_153_5638" result="effect2_dropShadow_153_5638"/>
<feBlend mode="normal" in="SourceGraphic" in2="effect2_dropShadow_153_5638" result="shape"/>
</filter>
</defs>
</svg>
