<svg width="133" height="63" viewBox="0 0 133 63" fill="none" xmlns="http://www.w3.org/2000/svg">
<path fill-rule="evenodd" clip-rule="evenodd" d="M115.012 1.99766C115.012 0.894385 115.906 0 117.009 0H130.478C131.582 0 132.476 0.894384 132.476 1.99766V63H115.012V1.99766ZM98.5748 7C97.4715 7 96.5771 7.89439 96.5771 8.99767V63H113.071V8.99766C113.071 7.89438 112.177 7 111.074 7H98.5748ZM77.0186 20.3595C77.0186 19.2562 77.9129 18.3618 79.0162 18.3618H92.2321C93.3354 18.3618 94.2297 19.2562 94.2297 20.3595V62.8299H77.0186V20.3595ZM0.523438 57.753C0.523438 56.6497 1.41782 55.7553 2.5211 55.7553H15.737C16.8402 55.7553 17.7346 56.6497 17.7346 57.753V62.8298H0.523438V57.753ZM40.7682 44.6382C39.6649 44.6382 38.7705 45.5326 38.7705 46.6358V62.8297H55.9817V46.6358C55.9817 45.5326 55.0873 44.6382 53.984 44.6382H40.7682ZM19.6475 52.6998C19.6475 51.5965 20.5418 50.7021 21.6451 50.7021H34.861C35.9643 50.7021 36.8586 51.5965 36.8586 52.6998V62.8298H19.6475V52.6998ZM59.8922 38.5742C58.7889 38.5742 57.8945 39.4686 57.8945 40.5719V62.8295H75.1057V40.5719C75.1057 39.4686 74.2113 38.5742 73.108 38.5742H59.8922Z" fill="#88F9BA"/>
</svg>
