<svg width="134" height="45" viewBox="0 0 134 45" fill="none" xmlns="http://www.w3.org/2000/svg">
<path fill-rule="evenodd" clip-rule="evenodd" d="M77.583 2.35948C77.583 1.2562 78.4774 0.361816 79.5807 0.361816H92.9021C94.0054 0.361816 94.8998 1.2562 94.8998 2.35948V44.8299H77.583V2.35948ZM0.619141 39.7531C0.619141 38.6498 1.51353 37.7554 2.6168 37.7554H15.9382C17.0415 37.7554 17.9359 38.6498 17.9359 39.7531V44.8299H0.619141V39.7531ZM41.0983 26.6387C39.995 26.6387 39.1006 27.5331 39.1006 28.6363V44.8302H56.4174V28.6363C56.4174 27.5331 55.523 26.6387 54.4197 26.6387H41.0983ZM19.8594 34.6998C19.8594 33.5965 20.7538 32.7021 21.857 32.7021H35.1785C36.2818 32.7021 37.1761 33.5965 37.1761 34.6998V44.8298H19.8594V34.6998ZM98.8209 10.4683C97.7176 10.4683 96.8232 11.3626 96.8232 12.4659V44.83H114.14V12.4659C114.14 11.3626 113.246 10.4683 112.142 10.4683H98.8209ZM116.064 22.5724C116.064 21.4691 116.959 20.5747 118.062 20.5747H131.384C132.487 20.5747 133.381 21.4691 133.381 22.5724V44.83H116.064V22.5724ZM60.3395 20.5747C59.2362 20.5747 58.3418 21.4691 58.3418 22.5724V44.83H75.6586V22.5724C75.6586 21.4691 74.7642 20.5747 73.6609 20.5747H60.3395Z" fill="#BFE9F8"/>
</svg>
