<svg width="81" height="12" viewBox="0 0 81 12" fill="none" xmlns="http://www.w3.org/2000/svg">
<path d="M0.358456 0.431152H4.13043C5.12164 0.431152 5.93219 0.748535 6.56207 1.3833C7.19683 2.01318 7.51422 2.82617 7.51422 3.82227C7.51422 4.82324 7.19683 5.64111 6.56207 6.27588C5.9273 6.91064 5.11187 7.22803 4.11578 7.22803H1.67682V11H0.358456V0.431152ZM1.67682 1.60303V6.05615H3.78619C4.53814 6.05615 5.12164 5.86084 5.53668 5.47021C5.95172 5.07471 6.15924 4.52539 6.15924 3.82227C6.15924 3.11914 5.95172 2.57471 5.53668 2.18896C5.12652 1.79834 4.54303 1.60303 3.78619 1.60303H1.67682ZM8.65849 11V0.431152H9.93291V11H8.65849ZM13.9263 10.0479C14.5269 10.0479 15.0298 9.8623 15.4351 9.49121C15.8453 9.11523 16.0503 8.65381 16.0503 8.10693V7.48438L14.0142 7.60889C13.5015 7.64307 13.1036 7.76758 12.8204 7.98242C12.542 8.19727 12.4029 8.48535 12.4029 8.84668C12.4029 9.20801 12.542 9.49854 12.8204 9.71826C13.0987 9.93799 13.4673 10.0479 13.9263 10.0479ZM13.6407 11.1318C12.8838 11.1318 12.271 10.9219 11.8023 10.502C11.3384 10.082 11.1065 9.53027 11.1065 8.84668C11.1065 8.19238 11.3457 7.66992 11.8243 7.2793C12.3077 6.88867 12.9888 6.66895 13.8677 6.62012L16.0503 6.49561V5.8584C16.0503 5.39453 15.9038 5.03076 15.6109 4.76709C15.3179 4.50342 14.9078 4.37158 14.3804 4.37158C13.897 4.37158 13.5039 4.479 13.2012 4.69385C12.8985 4.90381 12.7056 5.19922 12.6226 5.58008H11.3921C11.4361 4.90137 11.729 4.34473 12.271 3.91016C12.8179 3.4707 13.5308 3.25098 14.4097 3.25098C15.3033 3.25098 16.0113 3.47559 16.5337 3.9248C17.0611 4.37402 17.3247 4.97705 17.3247 5.73389V11H16.1162V9.68896H16.087C15.8575 10.1235 15.5205 10.4727 15.0762 10.7363C14.6319 11 14.1534 11.1318 13.6407 11.1318ZM18.7034 11V3.38281H19.9046V4.59863H19.9339C20.1536 4.17383 20.4685 3.84424 20.8787 3.60986C21.2888 3.37061 21.7796 3.25098 22.3509 3.25098C23.1809 3.25098 23.8279 3.50244 24.2918 4.00537C24.7556 4.50342 24.9876 5.18701 24.9876 6.05615V11H23.7132V6.2832C23.7132 5.66309 23.5667 5.19189 23.2737 4.86963C22.9807 4.54248 22.5437 4.37891 21.9627 4.37891C21.3621 4.37891 20.8811 4.57422 20.5198 4.96484C20.1585 5.35547 19.9778 5.87305 19.9778 6.51758V11H18.7034ZM26.7837 1.54443H28.0581V3.38281H29.5376V4.43018H28.0581V8.95654C28.0581 9.30322 28.1338 9.55957 28.2852 9.72559C28.4365 9.88672 28.6758 9.96729 29.0029 9.96729C29.208 9.96729 29.3838 9.95508 29.5303 9.93066V11C29.3643 11.0391 29.0957 11.0586 28.7246 11.0586C28.0264 11.0586 27.5283 10.9023 27.2305 10.5898C26.9326 10.2773 26.7837 9.75488 26.7837 9.02246V4.43018H25.6485V3.38281H26.7837V1.54443ZM33.4944 4.35693C32.9036 4.35693 32.4128 4.56201 32.0222 4.97217C31.6365 5.37744 31.4241 5.8999 31.385 6.53955H35.5232C35.5086 5.89502 35.3157 5.37012 34.9446 4.96484C34.5735 4.55957 34.0901 4.35693 33.4944 4.35693ZM35.4939 8.81738H36.7463C36.634 9.49121 36.2825 10.0454 35.6917 10.48C35.1057 10.9146 34.4002 11.1318 33.575 11.1318C32.4861 11.1318 31.6292 10.7803 31.0042 10.0771C30.3792 9.37402 30.0667 8.42188 30.0667 7.2207C30.0667 6.0293 30.3792 5.06982 31.0042 4.34229C31.634 3.61475 32.4714 3.25098 33.5164 3.25098C34.5418 3.25098 35.3523 3.59521 35.948 4.28369C36.5437 4.97217 36.8416 5.89502 36.8416 7.05225V7.53564H31.3777V7.60889C31.3777 8.34131 31.5779 8.92725 31.9783 9.3667C32.3787 9.80615 32.9207 10.0259 33.6043 10.0259C34.0828 10.0259 34.4905 9.91602 34.8274 9.69629C35.1643 9.47656 35.3865 9.18359 35.4939 8.81738ZM40.7764 11.1318C39.7998 11.1318 39.0112 10.7729 38.4106 10.0552C37.8149 9.3374 37.5171 8.38281 37.5171 7.19141C37.5171 6.00488 37.8149 5.05273 38.4106 4.33496C39.0063 3.6123 39.7852 3.25098 40.7471 3.25098C41.2842 3.25098 41.7651 3.37305 42.1899 3.61719C42.6147 3.86133 42.9419 4.1958 43.1714 4.62061H43.2007V0.431152H44.4751V11H43.2593V9.71094H43.2373C42.9883 10.1553 42.6514 10.5044 42.2266 10.7583C41.8018 11.0073 41.3184 11.1318 40.7764 11.1318ZM41.0181 4.37158C40.3442 4.37158 39.8096 4.62793 39.4141 5.14062C39.0186 5.64844 38.8208 6.33203 38.8208 7.19141C38.8208 8.05566 39.0186 8.7417 39.4141 9.24951C39.8096 9.75732 40.3442 10.0112 41.0181 10.0112C41.6772 10.0112 42.207 9.75488 42.6074 9.24219C43.0078 8.72461 43.208 8.04102 43.208 7.19141C43.208 6.3418 43.0054 5.66064 42.6001 5.14795C42.1997 4.63037 41.6724 4.37158 41.0181 4.37158ZM52.9819 11H51.6636V1.61768H48.331V0.431152H56.3144V1.61768H52.9819V11ZM55.5837 11V3.38281H56.7849V4.62793H56.8142C56.9411 4.20312 57.1682 3.86865 57.4953 3.62451C57.8274 3.37549 58.2155 3.25098 58.6599 3.25098C58.7624 3.25098 58.9333 3.26807 59.1726 3.30225V4.54004C59.0359 4.49121 58.8088 4.4668 58.4914 4.4668C57.9983 4.4668 57.6028 4.63037 57.3049 4.95752C57.007 5.28467 56.8581 5.7168 56.8581 6.25391V11H55.5837ZM62.6606 4.35693C62.0698 4.35693 61.5791 4.56201 61.1884 4.97217C60.8027 5.37744 60.5903 5.8999 60.5512 6.53955H64.6894C64.6748 5.89502 64.4819 5.37012 64.1108 4.96484C63.7397 4.55957 63.2563 4.35693 62.6606 4.35693ZM64.6601 8.81738H65.9126C65.8003 9.49121 65.4487 10.0454 64.8579 10.48C64.2719 10.9146 63.5664 11.1318 62.7412 11.1318C61.6523 11.1318 60.7954 10.7803 60.1704 10.0771C59.5454 9.37402 59.2329 8.42188 59.2329 7.2207C59.2329 6.0293 59.5454 5.06982 60.1704 4.34229C60.8003 3.61475 61.6377 3.25098 62.6826 3.25098C63.708 3.25098 64.5185 3.59521 65.1142 4.28369C65.7099 4.97217 66.0078 5.89502 66.0078 7.05225V7.53564H60.5439V7.60889C60.5439 8.34131 60.7441 8.92725 61.1445 9.3667C61.5449 9.80615 62.0869 10.0259 62.7705 10.0259C63.249 10.0259 63.6567 9.91602 63.9936 9.69629C64.3305 9.47656 64.5527 9.18359 64.6601 8.81738ZM70.111 4.35693C69.5202 4.35693 69.0295 4.56201 68.6389 4.97217C68.2531 5.37744 68.0407 5.8999 68.0017 6.53955H72.1398C72.1252 5.89502 71.9323 5.37012 71.5612 4.96484C71.1901 4.55957 70.7067 4.35693 70.111 4.35693ZM72.1105 8.81738H73.363C73.2507 9.49121 72.8991 10.0454 72.3083 10.48C71.7224 10.9146 71.0168 11.1318 70.1916 11.1318C69.1027 11.1318 68.2458 10.7803 67.6208 10.0771C66.9958 9.37402 66.6833 8.42188 66.6833 7.2207C66.6833 6.0293 66.9958 5.06982 67.6208 4.34229C68.2507 3.61475 69.0881 3.25098 70.133 3.25098C71.1584 3.25098 71.9689 3.59521 72.5647 4.28369C73.1604 4.97217 73.4582 5.89502 73.4582 7.05225V7.53564H67.9943V7.60889C67.9943 8.34131 68.1945 8.92725 68.5949 9.3667C68.9953 9.80615 69.5373 10.0259 70.2209 10.0259C70.6994 10.0259 71.1071 9.91602 71.444 9.69629C71.781 9.47656 72.0031 9.18359 72.1105 8.81738ZM74.3754 5.48486C74.3754 4.83057 74.6391 4.2959 75.1664 3.88086C75.6987 3.46094 76.3823 3.25098 77.2172 3.25098C78.0034 3.25098 78.6577 3.46094 79.1801 3.88086C79.7026 4.30078 79.9785 4.83301 80.0078 5.47754H78.7919C78.748 5.10645 78.582 4.81592 78.2939 4.60596C78.0107 4.396 77.6371 4.29102 77.1733 4.29102C76.7094 4.29102 76.3359 4.396 76.0527 4.60596C75.7695 4.81104 75.6279 5.08203 75.6279 5.41895C75.6279 5.93652 76.0502 6.30273 76.895 6.51758L78.0742 6.80322C78.8408 6.99854 79.3803 7.25244 79.6928 7.56494C80.0102 7.87256 80.1689 8.30713 80.1689 8.86865C80.1689 9.53271 79.8857 10.0771 79.3193 10.502C78.7529 10.9219 78.0253 11.1318 77.1367 11.1318C76.3066 11.1318 75.6205 10.9268 75.0786 10.5166C74.5414 10.1016 74.2387 9.55469 74.1703 8.87598H75.4448C75.5864 9.68652 76.1772 10.0918 77.2172 10.0918C77.7299 10.0918 78.1352 9.9917 78.433 9.7915C78.7358 9.58643 78.8871 9.31055 78.8871 8.96387C78.8871 8.69043 78.7968 8.47314 78.6161 8.31201C78.4404 8.15088 78.1401 8.01416 77.7153 7.90186L76.3749 7.55762C75.0419 7.21582 74.3754 6.5249 74.3754 5.48486Z" fill="#BFE9F8"/>
</svg>
