<svg width="297" height="193" viewBox="0 0 297 193" fill="none" xmlns="http://www.w3.org/2000/svg">
<rect x="6.13281" y="2" width="10.8202" height="145" rx="5.41009" fill="#191C1A"/>
<rect x="6.13281" y="2" width="10.8202" height="145" rx="5.41009" fill="#6CDCA0" fill-opacity="0.14"/>
<rect x="51.5771" y="2" width="10.8202" height="145" rx="5.41009" fill="#191C1A"/>
<rect x="51.5771" y="2" width="10.8202" height="145" rx="5.41009" fill="#6CDCA0" fill-opacity="0.14"/>
<rect x="97.0225" y="2" width="10.8202" height="145" rx="5.41009" fill="#191C1A"/>
<rect x="97.0225" y="2" width="10.8202" height="145" rx="5.41009" fill="#6CDCA0" fill-opacity="0.14"/>
<rect x="142.467" y="2" width="10.8202" height="145" rx="5.4101" fill="#191C1A"/>
<rect x="142.467" y="2" width="10.8202" height="145" rx="5.4101" fill="#6CDCA0" fill-opacity="0.14"/>
<rect x="187.912" y="2" width="10.8202" height="145" rx="5.41009" fill="#191C1A"/>
<rect x="187.912" y="2" width="10.8202" height="145" rx="5.41009" fill="#6CDCA0" fill-opacity="0.14"/>
<rect x="233.356" y="2" width="10.8202" height="145" rx="5.4101" fill="#191C1A"/>
<rect x="233.356" y="2" width="10.8202" height="145" rx="5.4101" fill="#6CDCA0" fill-opacity="0.14"/>
<rect x="278.802" y="2" width="10.8202" height="145" rx="5.4101" fill="#191C1A"/>
<rect x="278.802" y="2" width="10.8202" height="145" rx="5.4101" fill="#6CDCA0" fill-opacity="0.14"/>
<g filter="url(#filter0_d_152_5535)">
<rect x="6.13281" y="72" width="10.8202" height="75" rx="5.41009" fill="#88F9BA"/>
</g>
<g filter="url(#filter1_d_152_5535)">
<rect x="6.13281" y="40" width="10.8202" height="30" rx="5.41009" fill="#F14141"/>
</g>
<g filter="url(#filter2_d_152_5535)">
<rect x="52" y="35" width="10" height="71" rx="5" fill="#F14141"/>
</g>
<g filter="url(#filter3_d_152_5535)">
<rect x="97" y="4" width="11" height="89" rx="5.5" fill="#F14141"/>
</g>
<g filter="url(#filter4_d_152_5535)">
<rect x="142.467" y="16" width="10.8202" height="30" rx="5.4101" fill="#F14141"/>
</g>
<g filter="url(#filter5_d_152_5535)">
<rect x="188" y="35" width="11" height="45" rx="5.5" fill="#F14141"/>
</g>
<g filter="url(#filter6_d_152_5535)">
<rect x="51.5771" y="108" width="10.8202" height="39" rx="5.41009" fill="#88F9BA"/>
</g>
<g filter="url(#filter7_d_152_5535)">
<rect x="97.0225" y="95" width="10.8202" height="52" rx="5.41009" fill="#88F9BA"/>
</g>
<g filter="url(#filter8_d_152_5535)">
<rect x="142.467" y="48" width="10.8202" height="99" rx="5.4101" fill="#88F9BA"/>
</g>
<g filter="url(#filter9_d_152_5535)">
<rect x="187.912" y="82" width="10.8202" height="65" rx="5.41009" fill="#88F9BA"/>
</g>
<g filter="url(#filter10_d_152_5535)">
<rect x="233" y="77" width="11" height="35" rx="5.5" fill="#F14141"/>
</g>
<g filter="url(#filter11_d_152_5535)">
<rect x="233.356" y="114" width="10.8202" height="33" rx="5.4101" fill="#88F9BA"/>
</g>
<g filter="url(#filter12_d_152_5535)">
<rect x="279" y="59" width="11" height="21" rx="5.5" fill="#F14141"/>
</g>
<g filter="url(#filter13_d_152_5535)">
<rect x="278.802" y="82" width="10.8202" height="65" rx="5.4101" fill="#88F9BA"/>
</g>
<path d="M7.69336 173V166.432H7.65234L5.53711 167.861V166.01L7.6875 164.545H9.83203V173H7.69336ZM12.0176 173L15.5566 166.238V166.197H11.3848V164.545H17.6719V166.203L14.2676 173H12.0176Z" fill="#B4CCBA"/>
<path d="M8.34961 191H7.5293V185.57H7.49512L5.24902 190.951H4.50684L2.26074 185.57H2.22656V191H1.40625V183.954H2.42676L4.8584 189.833H4.89746L7.3291 183.954H8.34961V191ZM10.3174 184.818C10.9001 184.164 11.6911 183.837 12.6904 183.837C13.6898 183.837 14.4808 184.164 15.0635 184.818C15.6462 185.473 15.9375 186.36 15.9375 187.479C15.9375 188.599 15.6462 189.486 15.0635 190.141C14.4808 190.792 13.6898 191.117 12.6904 191.117C11.6911 191.117 10.9001 190.792 10.3174 190.141C9.7347 189.486 9.44336 188.599 9.44336 187.479C9.44336 186.36 9.7347 185.473 10.3174 184.818ZM14.3994 185.414C13.9795 184.903 13.4098 184.647 12.6904 184.647C11.971 184.647 11.3997 184.903 10.9766 185.414C10.5566 185.922 10.3467 186.61 10.3467 187.479C10.3467 188.345 10.5566 189.034 10.9766 189.545C11.3997 190.053 11.971 190.307 12.6904 190.307C13.4098 190.307 13.9795 190.053 14.3994 189.545C14.8226 189.034 15.0342 188.345 15.0342 187.479C15.0342 186.61 14.8226 185.922 14.3994 185.414ZM17.9004 191H17.0312V183.954H17.8857L21.7432 189.486H21.7871V183.954H22.6562V191H21.8018L17.9443 185.487H17.9004V191Z" fill="#B4CCBA"/>
<path d="M52.0557 173V166.432H52.0146L49.8994 167.861V166.01L52.0498 164.545H54.1943V173H52.0557ZM59.4912 173.211C58.4014 173.211 57.5264 172.982 56.8662 172.525C56.2061 172.064 55.876 171.459 55.876 170.709C55.876 170.139 56.0674 169.656 56.4502 169.262C56.8369 168.863 57.3389 168.625 57.9561 168.547V168.506C57.4404 168.404 57.0205 168.176 56.6963 167.82C56.376 167.465 56.2158 167.049 56.2158 166.572C56.2158 165.92 56.5205 165.385 57.1299 164.967C57.7432 164.545 58.5303 164.334 59.4912 164.334C60.4561 164.334 61.2432 164.545 61.8525 164.967C62.4619 165.389 62.7666 165.926 62.7666 166.578C62.7666 167.047 62.6064 167.461 62.2861 167.82C61.9658 168.176 61.5498 168.404 61.0381 168.506V168.547C61.6553 168.629 62.1553 168.869 62.5381 169.268C62.9209 169.662 63.1123 170.145 63.1123 170.715C63.1123 171.461 62.7783 172.064 62.1104 172.525C61.4463 172.982 60.5732 173.211 59.4912 173.211ZM59.4912 171.734C59.8936 171.734 60.2217 171.623 60.4756 171.4C60.7295 171.174 60.8564 170.891 60.8564 170.551C60.8564 170.211 60.7295 169.93 60.4756 169.707C60.2217 169.484 59.8936 169.373 59.4912 169.373C59.0928 169.373 58.7666 169.484 58.5127 169.707C58.2588 169.93 58.1318 170.211 58.1318 170.551C58.1318 170.891 58.2588 171.174 58.5127 171.4C58.7666 171.623 59.0928 171.734 59.4912 171.734ZM59.4912 167.896C59.8271 167.896 60.1045 167.797 60.3232 167.598C60.542 167.398 60.6514 167.15 60.6514 166.854C60.6514 166.553 60.542 166.303 60.3232 166.104C60.1045 165.904 59.8271 165.805 59.4912 165.805C59.1592 165.805 58.8838 165.904 58.665 166.104C58.4463 166.303 58.3369 166.553 58.3369 166.854C58.3369 167.15 58.4463 167.398 58.665 167.598C58.8838 167.797 59.1592 167.896 59.4912 167.896Z" fill="#B4CCBA"/>
<path d="M51.6758 191H50.7969V184.745H48.5752V183.954H53.8975V184.745H51.6758V191ZM55.7041 183.954V188.471C55.7041 189.014 55.8734 189.457 56.2119 189.799C56.5537 190.137 57.0241 190.307 57.623 190.307C58.222 190.307 58.6908 190.137 59.0293 189.799C59.3711 189.457 59.542 189.014 59.542 188.471V183.954H60.4209V188.529C60.4209 189.294 60.1686 189.918 59.6641 190.399C59.1628 190.878 58.4824 191.117 57.623 191.117C56.7637 191.117 56.0817 190.878 55.5771 190.399C55.0758 189.918 54.8252 189.294 54.8252 188.529V183.954H55.7041ZM66.1533 190.209V191H61.7881V183.954H66.1533V184.745H62.667V187.006H65.9727V187.787H62.667V190.209H66.1533Z" fill="#B4CCBA"/>
<path d="M97.501 173V166.432H97.46L95.3447 167.861V166.01L97.4951 164.545H99.6396V173H97.501ZM104.679 173.211C103.819 173.211 103.083 172.986 102.47 172.537C101.86 172.084 101.501 171.502 101.392 170.791H103.489C103.56 171.021 103.706 171.209 103.929 171.354C104.155 171.494 104.417 171.564 104.714 171.564C105.241 171.564 105.651 171.316 105.944 170.82C106.241 170.324 106.366 169.639 106.319 168.764H106.302H106.29H106.284C106.14 169.186 105.874 169.521 105.487 169.771C105.104 170.021 104.638 170.146 104.087 170.146C103.29 170.146 102.622 169.883 102.083 169.355C101.548 168.828 101.28 168.164 101.28 167.363C101.28 166.48 101.601 165.756 102.241 165.189C102.882 164.619 103.694 164.334 104.679 164.334C105.28 164.334 105.823 164.451 106.308 164.686C106.796 164.916 107.196 165.252 107.509 165.693C108.087 166.455 108.376 167.469 108.376 168.734C108.376 170.125 108.048 171.219 107.392 172.016C106.735 172.812 105.831 173.211 104.679 173.211ZM104.702 168.6C105.077 168.6 105.392 168.477 105.646 168.23C105.903 167.98 106.032 167.672 106.032 167.305C106.032 166.934 105.903 166.621 105.646 166.367C105.392 166.109 105.079 165.98 104.708 165.98C104.333 165.98 104.015 166.109 103.753 166.367C103.491 166.621 103.36 166.932 103.36 167.299C103.36 167.67 103.489 167.98 103.747 168.23C104.005 168.477 104.323 168.6 104.702 168.6Z" fill="#B4CCBA"/>
<path d="M95.125 185.409L93.499 191H92.6689L90.75 183.954H91.668L93.0791 189.706H93.1182L94.7051 183.954H95.5938L97.1807 189.706H97.2197L98.6309 183.954H99.5488L97.6299 191H96.7998L95.1738 185.409H95.125ZM104.817 190.209V191H100.452V183.954H104.817V184.745H101.331V187.006H104.637V187.787H101.331V190.209H104.817ZM105.979 183.954H108.348C109.393 183.954 110.208 184.265 110.794 184.887C111.38 185.505 111.673 186.368 111.673 187.475C111.673 188.585 111.38 189.451 110.794 190.072C110.211 190.691 109.396 191 108.348 191H105.979V183.954ZM106.858 184.745V190.209H108.289C109.087 190.209 109.7 189.975 110.13 189.506C110.56 189.034 110.774 188.36 110.774 187.484C110.774 186.602 110.56 185.925 110.13 185.453C109.703 184.981 109.09 184.745 108.289 184.745H106.858Z" fill="#B4CCBA"/>
<path d="M140.73 167.146C140.73 166.311 141.033 165.633 141.639 165.113C142.244 164.594 143.039 164.334 144.023 164.334C144.977 164.334 145.742 164.566 146.32 165.031C146.902 165.496 147.193 166.102 147.193 166.848C147.193 167.059 147.16 167.271 147.094 167.486C147.027 167.697 146.949 167.885 146.859 168.049C146.77 168.209 146.646 168.385 146.49 168.576C146.338 168.764 146.207 168.914 146.098 169.027C145.988 169.137 145.846 169.275 145.67 169.443L143.648 171.307V171.348H147.299V173H140.854V171.564L144.152 168.529C144.508 168.189 144.756 167.902 144.896 167.668C145.041 167.43 145.113 167.18 145.113 166.918C145.113 166.645 145.006 166.416 144.791 166.232C144.576 166.045 144.297 165.951 143.953 165.951C143.59 165.951 143.289 166.064 143.051 166.291C142.816 166.514 142.699 166.799 142.699 167.146V167.188H140.73V167.146ZM151.781 173.211C150.672 173.211 149.797 172.814 149.156 172.021C148.516 171.229 148.195 170.141 148.195 168.758C148.195 167.375 148.516 166.291 149.156 165.506C149.801 164.721 150.676 164.328 151.781 164.328C152.883 164.328 153.754 164.721 154.395 165.506C155.035 166.291 155.355 167.373 155.355 168.752C155.355 170.131 155.035 171.219 154.395 172.016C153.758 172.812 152.887 173.211 151.781 173.211ZM150.756 170.814C151.01 171.295 151.352 171.535 151.781 171.535C152.211 171.535 152.549 171.297 152.795 170.82C153.045 170.34 153.17 169.652 153.17 168.758C153.17 167.863 153.045 167.182 152.795 166.713C152.549 166.24 152.211 166.004 151.781 166.004C151.352 166.004 151.01 166.24 150.756 166.713C150.506 167.186 150.381 167.865 150.381 168.752C150.381 169.646 150.506 170.334 150.756 170.814Z" fill="#B4CCBA"/>
<path d="M141.483 191H140.604V184.745H138.383V183.954H143.705V184.745H141.483V191ZM150.258 191H149.379V187.792H145.512V191H144.633V183.954H145.512V187.001H149.379V183.954H150.258V191ZM152.504 183.954V188.471C152.504 189.014 152.673 189.457 153.012 189.799C153.354 190.137 153.824 190.307 154.423 190.307C155.022 190.307 155.491 190.137 155.829 189.799C156.171 189.457 156.342 189.014 156.342 188.471V183.954H157.221V188.529C157.221 189.294 156.968 189.918 156.464 190.399C155.963 190.878 155.282 191.117 154.423 191.117C153.563 191.117 152.882 190.878 152.377 190.399C151.876 189.918 151.625 189.294 151.625 188.529V183.954H152.504Z" fill="#B4CCBA"/>
<path d="M186.176 167.146C186.176 166.311 186.479 165.633 187.084 165.113C187.689 164.594 188.484 164.334 189.469 164.334C190.422 164.334 191.188 164.566 191.766 165.031C192.348 165.496 192.639 166.102 192.639 166.848C192.639 167.059 192.605 167.271 192.539 167.486C192.473 167.697 192.395 167.885 192.305 168.049C192.215 168.209 192.092 168.385 191.936 168.576C191.783 168.764 191.652 168.914 191.543 169.027C191.434 169.137 191.291 169.275 191.115 169.443L189.094 171.307V171.348H192.744V173H186.299V171.564L189.598 168.529C189.953 168.189 190.201 167.902 190.342 167.668C190.486 167.43 190.559 167.18 190.559 166.918C190.559 166.645 190.451 166.416 190.236 166.232C190.021 166.045 189.742 165.951 189.398 165.951C189.035 165.951 188.734 166.064 188.496 166.291C188.262 166.514 188.145 166.799 188.145 167.146V167.188H186.176V167.146ZM195.867 173V166.432H195.826L193.711 167.861V166.01L195.861 164.545H198.006V173H195.867Z" fill="#B4CCBA"/>
<path d="M187.311 191H186.432V183.954H190.709V184.745H187.311V187.167H190.431V187.948H187.311V191ZM192.594 184.735V187.436H194.278C194.731 187.436 195.079 187.318 195.323 187.084C195.571 186.85 195.694 186.516 195.694 186.083C195.694 185.66 195.566 185.329 195.309 185.092C195.051 184.854 194.695 184.735 194.239 184.735H192.594ZM192.594 188.212V191H191.715V183.954H194.356C195.037 183.954 195.58 184.146 195.987 184.53C196.397 184.911 196.603 185.419 196.603 186.054C196.603 186.545 196.477 186.97 196.227 187.328C195.976 187.686 195.629 187.935 195.187 188.075L196.817 191H195.787L194.278 188.212H192.594ZM198.59 191H197.711V183.954H198.59V191Z" fill="#B4CCBA"/>
<path d="M231.62 167.146C231.62 166.311 231.923 165.633 232.528 165.113C233.134 164.594 233.929 164.334 234.913 164.334C235.866 164.334 236.632 164.566 237.21 165.031C237.792 165.496 238.083 166.102 238.083 166.848C238.083 167.059 238.05 167.271 237.983 167.486C237.917 167.697 237.839 167.885 237.749 168.049C237.659 168.209 237.536 168.385 237.38 168.576C237.228 168.764 237.097 168.914 236.987 169.027C236.878 169.137 236.735 169.275 236.56 169.443L234.538 171.307V171.348H238.188V173H231.743V171.564L235.042 168.529C235.397 168.189 235.646 167.902 235.786 167.668C235.931 167.43 236.003 167.18 236.003 166.918C236.003 166.645 235.896 166.416 235.681 166.232C235.466 166.045 235.187 165.951 234.843 165.951C234.479 165.951 234.179 166.064 233.94 166.291C233.706 166.514 233.589 166.799 233.589 167.146V167.188H231.62V167.146ZM239.097 167.146C239.097 166.311 239.399 165.633 240.005 165.113C240.61 164.594 241.405 164.334 242.39 164.334C243.343 164.334 244.108 164.566 244.687 165.031C245.269 165.496 245.56 166.102 245.56 166.848C245.56 167.059 245.526 167.271 245.46 167.486C245.394 167.697 245.315 167.885 245.226 168.049C245.136 168.209 245.013 168.385 244.856 168.576C244.704 168.764 244.573 168.914 244.464 169.027C244.354 169.137 244.212 169.275 244.036 169.443L242.015 171.307V171.348H245.665V173H239.22V171.564L242.519 168.529C242.874 168.189 243.122 167.902 243.263 167.668C243.407 167.43 243.479 167.18 243.479 166.918C243.479 166.645 243.372 166.416 243.157 166.232C242.942 166.045 242.663 165.951 242.319 165.951C241.956 165.951 241.655 166.064 241.417 166.291C241.183 166.514 241.065 166.799 241.065 167.146V167.188H239.097V167.146Z" fill="#B4CCBA"/>
<path d="M231.539 189.062H232.423C232.465 189.442 232.651 189.748 232.979 189.979C233.312 190.211 233.73 190.326 234.234 190.326C234.71 190.326 235.102 190.214 235.411 189.989C235.724 189.761 235.88 189.475 235.88 189.13C235.88 188.834 235.771 188.59 235.553 188.397C235.338 188.205 234.993 188.048 234.518 187.924L233.614 187.689C232.963 187.523 232.488 187.292 232.188 186.996C231.889 186.697 231.739 186.308 231.739 185.829C231.739 185.243 231.97 184.765 232.433 184.394C232.898 184.022 233.497 183.837 234.229 183.837C234.929 183.837 235.509 184.026 235.968 184.403C236.427 184.778 236.666 185.259 236.686 185.849H235.807C235.768 185.471 235.605 185.173 235.318 184.955C235.032 184.737 234.659 184.628 234.2 184.628C233.744 184.628 233.372 184.735 233.082 184.95C232.796 185.165 232.652 185.445 232.652 185.79C232.652 186.057 232.757 186.277 232.965 186.449C233.176 186.618 233.521 186.765 234 186.889L234.737 187.084C235.466 187.266 235.991 187.509 236.31 187.812C236.629 188.114 236.788 188.518 236.788 189.022C236.788 189.667 236.55 190.178 236.075 190.556C235.603 190.93 234.962 191.117 234.151 191.117C233.403 191.117 232.791 190.93 232.315 190.556C231.84 190.181 231.581 189.683 231.539 189.062ZM242.394 191L241.686 188.983H238.883L238.175 191H237.252L239.85 183.954H240.719L243.316 191H242.394ZM240.27 185.023L239.142 188.236H241.427L240.299 185.023H240.27ZM245.807 191H244.928V184.745H242.706V183.954H248.028V184.745H245.807V191Z" fill="#B4CCBA"/>
<path d="M277.065 167.146C277.065 166.311 277.368 165.633 277.974 165.113C278.579 164.594 279.374 164.334 280.358 164.334C281.312 164.334 282.077 164.566 282.655 165.031C283.237 165.496 283.528 166.102 283.528 166.848C283.528 167.059 283.495 167.271 283.429 167.486C283.362 167.697 283.284 167.885 283.194 168.049C283.104 168.209 282.981 168.385 282.825 168.576C282.673 168.764 282.542 168.914 282.433 169.027C282.323 169.137 282.181 169.275 282.005 169.443L279.983 171.307V171.348H283.634V173H277.188V171.564L280.487 168.529C280.843 168.189 281.091 167.902 281.231 167.668C281.376 167.43 281.448 167.18 281.448 166.918C281.448 166.645 281.341 166.416 281.126 166.232C280.911 166.045 280.632 165.951 280.288 165.951C279.925 165.951 279.624 166.064 279.386 166.291C279.151 166.514 279.034 166.799 279.034 167.146V167.188H277.065V167.146ZM286.897 169.42V167.938H287.923C288.286 167.938 288.577 167.846 288.796 167.662C289.015 167.475 289.124 167.229 289.124 166.924C289.124 166.615 289.017 166.373 288.802 166.197C288.587 166.021 288.288 165.934 287.905 165.934C287.538 165.934 287.239 166.035 287.009 166.238C286.778 166.441 286.657 166.707 286.646 167.035H284.7C284.716 166.219 285.024 165.564 285.626 165.072C286.228 164.58 287.019 164.334 287.999 164.334C288.94 164.334 289.694 164.543 290.261 164.961C290.831 165.379 291.116 165.936 291.116 166.631C291.116 167.135 290.954 167.562 290.63 167.914C290.306 168.266 289.882 168.488 289.358 168.582V168.629C289.991 168.688 290.493 168.896 290.864 169.256C291.239 169.615 291.427 170.082 291.427 170.656C291.427 171.43 291.104 172.049 290.46 172.514C289.819 172.979 288.972 173.211 287.917 173.211C286.929 173.211 286.128 172.963 285.515 172.467C284.905 171.971 284.579 171.311 284.536 170.486H286.587C286.606 170.807 286.737 171.061 286.979 171.248C287.222 171.432 287.546 171.523 287.952 171.523C288.335 171.523 288.646 171.428 288.884 171.236C289.126 171.041 289.247 170.787 289.247 170.475C289.247 170.146 289.13 169.889 288.896 169.701C288.661 169.514 288.339 169.42 287.929 169.42H286.897Z" fill="#B4CCBA"/>
<path d="M274.82 189.062H275.704C275.746 189.442 275.932 189.748 276.261 189.979C276.593 190.211 277.011 190.326 277.516 190.326C277.991 190.326 278.383 190.214 278.692 189.989C279.005 189.761 279.161 189.475 279.161 189.13C279.161 188.834 279.052 188.59 278.834 188.397C278.619 188.205 278.274 188.048 277.799 187.924L276.896 187.689C276.244 187.523 275.769 187.292 275.47 186.996C275.17 186.697 275.021 186.308 275.021 185.829C275.021 185.243 275.252 184.765 275.714 184.394C276.179 184.022 276.778 183.837 277.511 183.837C278.211 183.837 278.79 184.026 279.249 184.403C279.708 184.778 279.947 185.259 279.967 185.849H279.088C279.049 185.471 278.886 185.173 278.6 184.955C278.313 184.737 277.94 184.628 277.481 184.628C277.026 184.628 276.653 184.735 276.363 184.95C276.077 185.165 275.934 185.445 275.934 185.79C275.934 186.057 276.038 186.277 276.246 186.449C276.458 186.618 276.803 186.765 277.281 186.889L278.019 187.084C278.748 187.266 279.272 187.509 279.591 187.812C279.91 188.114 280.069 188.518 280.069 189.022C280.069 189.667 279.832 190.178 279.356 190.556C278.884 190.93 278.243 191.117 277.433 191.117C276.684 191.117 276.072 190.93 275.597 190.556C275.121 190.181 274.863 189.683 274.82 189.062ZM281.974 183.954V188.471C281.974 189.014 282.143 189.457 282.481 189.799C282.823 190.137 283.294 190.307 283.893 190.307C284.492 190.307 284.96 190.137 285.299 189.799C285.641 189.457 285.812 189.014 285.812 188.471V183.954H286.69V188.529C286.69 189.294 286.438 189.918 285.934 190.399C285.432 190.878 284.752 191.117 283.893 191.117C283.033 191.117 282.351 190.878 281.847 190.399C281.345 189.918 281.095 189.294 281.095 188.529V183.954H281.974ZM288.927 191H288.058V183.954H288.912L292.77 189.486H292.813V183.954H293.683V191H292.828L288.971 185.487H288.927V191Z" fill="#B4CCBA"/>
<defs>
<filter id="filter0_d_152_5535" x="1.13281" y="67" width="20.8203" height="85" filterUnits="userSpaceOnUse" color-interpolation-filters="sRGB">
<feFlood flood-opacity="0" result="BackgroundImageFix"/>
<feColorMatrix in="SourceAlpha" type="matrix" values="0 0 0 0 0 0 0 0 0 0 0 0 0 0 0 0 0 0 127 0" result="hardAlpha"/>
<feOffset/>
<feGaussianBlur stdDeviation="2.5"/>
<feComposite in2="hardAlpha" operator="out"/>
<feColorMatrix type="matrix" values="0 0 0 0 0.533333 0 0 0 0 0.976471 0 0 0 0 0.729412 0 0 0 1 0"/>
<feBlend mode="normal" in2="BackgroundImageFix" result="effect1_dropShadow_152_5535"/>
<feBlend mode="normal" in="SourceGraphic" in2="effect1_dropShadow_152_5535" result="shape"/>
</filter>
<filter id="filter1_d_152_5535" x="2.13281" y="36" width="18.8203" height="38" filterUnits="userSpaceOnUse" color-interpolation-filters="sRGB">
<feFlood flood-opacity="0" result="BackgroundImageFix"/>
<feColorMatrix in="SourceAlpha" type="matrix" values="0 0 0 0 0 0 0 0 0 0 0 0 0 0 0 0 0 0 127 0" result="hardAlpha"/>
<feOffset/>
<feGaussianBlur stdDeviation="2"/>
<feComposite in2="hardAlpha" operator="out"/>
<feColorMatrix type="matrix" values="0 0 0 0 0.945098 0 0 0 0 0.254902 0 0 0 0 0.254902 0 0 0 1 0"/>
<feBlend mode="normal" in2="BackgroundImageFix" result="effect1_dropShadow_152_5535"/>
<feBlend mode="normal" in="SourceGraphic" in2="effect1_dropShadow_152_5535" result="shape"/>
</filter>
<filter id="filter2_d_152_5535" x="48" y="31" width="18" height="79" filterUnits="userSpaceOnUse" color-interpolation-filters="sRGB">
<feFlood flood-opacity="0" result="BackgroundImageFix"/>
<feColorMatrix in="SourceAlpha" type="matrix" values="0 0 0 0 0 0 0 0 0 0 0 0 0 0 0 0 0 0 127 0" result="hardAlpha"/>
<feOffset/>
<feGaussianBlur stdDeviation="2"/>
<feComposite in2="hardAlpha" operator="out"/>
<feColorMatrix type="matrix" values="0 0 0 0 0.945098 0 0 0 0 0.254902 0 0 0 0 0.254902 0 0 0 1 0"/>
<feBlend mode="normal" in2="BackgroundImageFix" result="effect1_dropShadow_152_5535"/>
<feBlend mode="normal" in="SourceGraphic" in2="effect1_dropShadow_152_5535" result="shape"/>
</filter>
<filter id="filter3_d_152_5535" x="93" y="0" width="19" height="97" filterUnits="userSpaceOnUse" color-interpolation-filters="sRGB">
<feFlood flood-opacity="0" result="BackgroundImageFix"/>
<feColorMatrix in="SourceAlpha" type="matrix" values="0 0 0 0 0 0 0 0 0 0 0 0 0 0 0 0 0 0 127 0" result="hardAlpha"/>
<feOffset/>
<feGaussianBlur stdDeviation="2"/>
<feComposite in2="hardAlpha" operator="out"/>
<feColorMatrix type="matrix" values="0 0 0 0 0.945098 0 0 0 0 0.254902 0 0 0 0 0.254902 0 0 0 1 0"/>
<feBlend mode="normal" in2="BackgroundImageFix" result="effect1_dropShadow_152_5535"/>
<feBlend mode="normal" in="SourceGraphic" in2="effect1_dropShadow_152_5535" result="shape"/>
</filter>
<filter id="filter4_d_152_5535" x="138.467" y="12" width="18.8203" height="38" filterUnits="userSpaceOnUse" color-interpolation-filters="sRGB">
<feFlood flood-opacity="0" result="BackgroundImageFix"/>
<feColorMatrix in="SourceAlpha" type="matrix" values="0 0 0 0 0 0 0 0 0 0 0 0 0 0 0 0 0 0 127 0" result="hardAlpha"/>
<feOffset/>
<feGaussianBlur stdDeviation="2"/>
<feComposite in2="hardAlpha" operator="out"/>
<feColorMatrix type="matrix" values="0 0 0 0 0.945098 0 0 0 0 0.254902 0 0 0 0 0.254902 0 0 0 1 0"/>
<feBlend mode="normal" in2="BackgroundImageFix" result="effect1_dropShadow_152_5535"/>
<feBlend mode="normal" in="SourceGraphic" in2="effect1_dropShadow_152_5535" result="shape"/>
</filter>
<filter id="filter5_d_152_5535" x="184" y="31" width="19" height="53" filterUnits="userSpaceOnUse" color-interpolation-filters="sRGB">
<feFlood flood-opacity="0" result="BackgroundImageFix"/>
<feColorMatrix in="SourceAlpha" type="matrix" values="0 0 0 0 0 0 0 0 0 0 0 0 0 0 0 0 0 0 127 0" result="hardAlpha"/>
<feOffset/>
<feGaussianBlur stdDeviation="2"/>
<feComposite in2="hardAlpha" operator="out"/>
<feColorMatrix type="matrix" values="0 0 0 0 0.945098 0 0 0 0 0.254902 0 0 0 0 0.254902 0 0 0 1 0"/>
<feBlend mode="normal" in2="BackgroundImageFix" result="effect1_dropShadow_152_5535"/>
<feBlend mode="normal" in="SourceGraphic" in2="effect1_dropShadow_152_5535" result="shape"/>
</filter>
<filter id="filter6_d_152_5535" x="46.5771" y="103" width="20.8203" height="49" filterUnits="userSpaceOnUse" color-interpolation-filters="sRGB">
<feFlood flood-opacity="0" result="BackgroundImageFix"/>
<feColorMatrix in="SourceAlpha" type="matrix" values="0 0 0 0 0 0 0 0 0 0 0 0 0 0 0 0 0 0 127 0" result="hardAlpha"/>
<feOffset/>
<feGaussianBlur stdDeviation="2.5"/>
<feComposite in2="hardAlpha" operator="out"/>
<feColorMatrix type="matrix" values="0 0 0 0 0.533333 0 0 0 0 0.976471 0 0 0 0 0.729412 0 0 0 1 0"/>
<feBlend mode="normal" in2="BackgroundImageFix" result="effect1_dropShadow_152_5535"/>
<feBlend mode="normal" in="SourceGraphic" in2="effect1_dropShadow_152_5535" result="shape"/>
</filter>
<filter id="filter7_d_152_5535" x="92.0225" y="90" width="20.8203" height="62" filterUnits="userSpaceOnUse" color-interpolation-filters="sRGB">
<feFlood flood-opacity="0" result="BackgroundImageFix"/>
<feColorMatrix in="SourceAlpha" type="matrix" values="0 0 0 0 0 0 0 0 0 0 0 0 0 0 0 0 0 0 127 0" result="hardAlpha"/>
<feOffset/>
<feGaussianBlur stdDeviation="2.5"/>
<feComposite in2="hardAlpha" operator="out"/>
<feColorMatrix type="matrix" values="0 0 0 0 0.533333 0 0 0 0 0.976471 0 0 0 0 0.729412 0 0 0 1 0"/>
<feBlend mode="normal" in2="BackgroundImageFix" result="effect1_dropShadow_152_5535"/>
<feBlend mode="normal" in="SourceGraphic" in2="effect1_dropShadow_152_5535" result="shape"/>
</filter>
<filter id="filter8_d_152_5535" x="137.467" y="43" width="20.8203" height="109" filterUnits="userSpaceOnUse" color-interpolation-filters="sRGB">
<feFlood flood-opacity="0" result="BackgroundImageFix"/>
<feColorMatrix in="SourceAlpha" type="matrix" values="0 0 0 0 0 0 0 0 0 0 0 0 0 0 0 0 0 0 127 0" result="hardAlpha"/>
<feOffset/>
<feGaussianBlur stdDeviation="2.5"/>
<feComposite in2="hardAlpha" operator="out"/>
<feColorMatrix type="matrix" values="0 0 0 0 0.533333 0 0 0 0 0.976471 0 0 0 0 0.729412 0 0 0 1 0"/>
<feBlend mode="normal" in2="BackgroundImageFix" result="effect1_dropShadow_152_5535"/>
<feBlend mode="normal" in="SourceGraphic" in2="effect1_dropShadow_152_5535" result="shape"/>
</filter>
<filter id="filter9_d_152_5535" x="182.912" y="77" width="20.8203" height="75" filterUnits="userSpaceOnUse" color-interpolation-filters="sRGB">
<feFlood flood-opacity="0" result="BackgroundImageFix"/>
<feColorMatrix in="SourceAlpha" type="matrix" values="0 0 0 0 0 0 0 0 0 0 0 0 0 0 0 0 0 0 127 0" result="hardAlpha"/>
<feOffset/>
<feGaussianBlur stdDeviation="2.5"/>
<feComposite in2="hardAlpha" operator="out"/>
<feColorMatrix type="matrix" values="0 0 0 0 0.533333 0 0 0 0 0.976471 0 0 0 0 0.729412 0 0 0 1 0"/>
<feBlend mode="normal" in2="BackgroundImageFix" result="effect1_dropShadow_152_5535"/>
<feBlend mode="normal" in="SourceGraphic" in2="effect1_dropShadow_152_5535" result="shape"/>
</filter>
<filter id="filter10_d_152_5535" x="229" y="73" width="19" height="43" filterUnits="userSpaceOnUse" color-interpolation-filters="sRGB">
<feFlood flood-opacity="0" result="BackgroundImageFix"/>
<feColorMatrix in="SourceAlpha" type="matrix" values="0 0 0 0 0 0 0 0 0 0 0 0 0 0 0 0 0 0 127 0" result="hardAlpha"/>
<feOffset/>
<feGaussianBlur stdDeviation="2"/>
<feComposite in2="hardAlpha" operator="out"/>
<feColorMatrix type="matrix" values="0 0 0 0 0.945098 0 0 0 0 0.254902 0 0 0 0 0.254902 0 0 0 1 0"/>
<feBlend mode="normal" in2="BackgroundImageFix" result="effect1_dropShadow_152_5535"/>
<feBlend mode="normal" in="SourceGraphic" in2="effect1_dropShadow_152_5535" result="shape"/>
</filter>
<filter id="filter11_d_152_5535" x="228.356" y="109" width="20.8203" height="43" filterUnits="userSpaceOnUse" color-interpolation-filters="sRGB">
<feFlood flood-opacity="0" result="BackgroundImageFix"/>
<feColorMatrix in="SourceAlpha" type="matrix" values="0 0 0 0 0 0 0 0 0 0 0 0 0 0 0 0 0 0 127 0" result="hardAlpha"/>
<feOffset/>
<feGaussianBlur stdDeviation="2.5"/>
<feComposite in2="hardAlpha" operator="out"/>
<feColorMatrix type="matrix" values="0 0 0 0 0.533333 0 0 0 0 0.976471 0 0 0 0 0.729412 0 0 0 1 0"/>
<feBlend mode="normal" in2="BackgroundImageFix" result="effect1_dropShadow_152_5535"/>
<feBlend mode="normal" in="SourceGraphic" in2="effect1_dropShadow_152_5535" result="shape"/>
</filter>
<filter id="filter12_d_152_5535" x="275" y="55" width="19" height="29" filterUnits="userSpaceOnUse" color-interpolation-filters="sRGB">
<feFlood flood-opacity="0" result="BackgroundImageFix"/>
<feColorMatrix in="SourceAlpha" type="matrix" values="0 0 0 0 0 0 0 0 0 0 0 0 0 0 0 0 0 0 127 0" result="hardAlpha"/>
<feOffset/>
<feGaussianBlur stdDeviation="2"/>
<feComposite in2="hardAlpha" operator="out"/>
<feColorMatrix type="matrix" values="0 0 0 0 0.945098 0 0 0 0 0.254902 0 0 0 0 0.254902 0 0 0 1 0"/>
<feBlend mode="normal" in2="BackgroundImageFix" result="effect1_dropShadow_152_5535"/>
<feBlend mode="normal" in="SourceGraphic" in2="effect1_dropShadow_152_5535" result="shape"/>
</filter>
<filter id="filter13_d_152_5535" x="273.802" y="77" width="20.8203" height="75" filterUnits="userSpaceOnUse" color-interpolation-filters="sRGB">
<feFlood flood-opacity="0" result="BackgroundImageFix"/>
<feColorMatrix in="SourceAlpha" type="matrix" values="0 0 0 0 0 0 0 0 0 0 0 0 0 0 0 0 0 0 127 0" result="hardAlpha"/>
<feOffset/>
<feGaussianBlur stdDeviation="2.5"/>
<feComposite in2="hardAlpha" operator="out"/>
<feColorMatrix type="matrix" values="0 0 0 0 0.533333 0 0 0 0 0.976471 0 0 0 0 0.729412 0 0 0 1 0"/>
<feBlend mode="normal" in2="BackgroundImageFix" result="effect1_dropShadow_152_5535"/>
<feBlend mode="normal" in="SourceGraphic" in2="effect1_dropShadow_152_5535" result="shape"/>
</filter>
</defs>
</svg>
