<svg width="171" height="34" viewBox="0 0 171 34" fill="none" xmlns="http://www.w3.org/2000/svg">
<circle cx="13" cy="8.5" r="8" fill="#00D766"/>
<path d="M3.77551 30.6289C3.0343 30.6289 2.41483 30.4194 1.91711 30.0005C1.42297 29.5815 1.15621 29.0426 1.11682 28.3838H2.0675C2.11047 28.7956 2.2913 29.1322 2.60998 29.3936C2.92867 29.6514 3.32076 29.7803 3.78625 29.7803C4.31262 29.7803 4.74052 29.6156 5.06995 29.2861C5.40295 28.9567 5.56946 28.5306 5.56946 28.0078C5.56946 27.485 5.40295 27.0571 5.06995 26.7241C4.74052 26.3875 4.31799 26.2192 3.80237 26.2192C3.44071 26.2192 3.11308 26.2962 2.81946 26.4502C2.52584 26.6042 2.30025 26.8172 2.1427 27.0894H1.23498L1.6593 22.7495H6.09582V23.6089H2.45422L2.21789 26.1333H2.23938C2.41483 25.9006 2.65474 25.7179 2.95911 25.5854C3.26705 25.453 3.60543 25.3867 3.97424 25.3867C4.71903 25.3867 5.33134 25.632 5.81116 26.1226C6.29455 26.6095 6.53625 27.229 6.53625 27.981C6.53625 28.758 6.27844 29.3936 5.76282 29.8877C5.24719 30.3818 4.58476 30.6289 3.77551 30.6289ZM10.3244 30.6289C9.42566 30.6289 8.72384 30.2708 8.21895 29.5547C7.71765 28.835 7.467 27.8574 7.467 26.6221C7.467 25.3975 7.71944 24.4253 8.22432 23.7056C8.73279 22.9823 9.43282 22.6206 10.3244 22.6206C11.216 22.6206 11.9125 22.9805 12.4138 23.7002C12.9187 24.4163 13.1711 25.3885 13.1711 26.6167C13.1711 27.8521 12.9205 28.8296 12.4191 29.5493C11.9178 30.269 11.2196 30.6289 10.3244 30.6289ZM8.93331 28.937C9.26274 29.5028 9.72644 29.7856 10.3244 29.7856C10.9224 29.7856 11.3843 29.5046 11.7102 28.9424C12.036 28.3766 12.1989 27.6032 12.1989 26.6221C12.1989 25.6553 12.0342 24.889 11.7048 24.3232C11.3754 23.7539 10.9152 23.4692 10.3244 23.4692C9.7336 23.4692 9.27169 23.7539 8.93868 24.3232C8.60567 24.8926 8.43917 25.6571 8.43917 26.6167C8.43917 27.5978 8.60388 28.3713 8.93331 28.937ZM15.3103 27.3955L17.781 24.9141H18.9143L16.492 27.3257L18.9895 30.5H17.9046L15.8313 27.9004L15.3103 28.3945V30.5H14.3758V22.7495H15.3103V27.3955ZM22.6166 27.8789V30.3389H21.7465V27.8789H19.453V27.0088H21.7465V24.6079H22.6166V27.0088H24.91V27.8789H22.6166Z" fill="#BFE9F8"/>
<circle cx="47" cy="8.5" r="8" fill="#35DF64"/>
<path d="M34.6652 24.9839C34.6652 24.3071 34.9086 23.745 35.3956 23.2974C35.8826 22.8462 36.4913 22.6206 37.2218 22.6206C37.9129 22.6206 38.4983 22.8265 38.9781 23.2383C39.458 23.6501 39.6979 24.1532 39.6979 24.7476C39.6979 25.1772 39.5797 25.5908 39.3434 25.9883C39.1071 26.3857 38.663 26.9211 38.0114 27.5942L36.0509 29.6191V29.6406H39.8268V30.5H34.7135V29.834L37.442 26.9604C37.9612 26.4126 38.305 25.9972 38.4733 25.7144C38.6451 25.4315 38.7311 25.1289 38.7311 24.8066C38.7311 24.4342 38.5807 24.1174 38.2799 23.856C37.9827 23.5946 37.6211 23.4639 37.1949 23.4639C36.7402 23.4639 36.3606 23.6089 36.0563 23.8989C35.7519 24.189 35.5997 24.5506 35.5997 24.9839V24.9893H34.6652V24.9839ZM43.7224 30.6289C42.8236 30.6289 42.1218 30.2708 41.6169 29.5547C41.1156 28.835 40.8649 27.8574 40.8649 26.6221C40.8649 25.3975 41.1174 24.4253 41.6223 23.7056C42.1307 22.9823 42.8308 22.6206 43.7224 22.6206C44.614 22.6206 45.3104 22.9805 45.8117 23.7002C46.3166 24.4163 46.5691 25.3885 46.5691 26.6167C46.5691 27.8521 46.3184 28.8296 45.8171 29.5493C45.3158 30.269 44.6176 30.6289 43.7224 30.6289ZM42.3313 28.937C42.6607 29.5028 43.1244 29.7856 43.7224 29.7856C44.3204 29.7856 44.7823 29.5046 45.1081 28.9424C45.434 28.3766 45.5969 27.6032 45.5969 26.6221C45.5969 25.6553 45.4322 24.889 45.1027 24.3232C44.7733 23.7539 44.3132 23.4692 43.7224 23.4692C43.1316 23.4692 42.6696 23.7539 42.3366 24.3232C42.0036 24.8926 41.8371 25.6571 41.8371 26.6167C41.8371 27.5978 42.0018 28.3713 42.3313 28.937ZM48.7083 27.3955L51.179 24.9141H52.3123L49.8899 27.3257L52.3875 30.5H51.3025L49.2293 27.9004L48.7083 28.3945V30.5H47.7737V22.7495H48.7083V27.3955ZM56.0145 27.8789V30.3389H55.1444V27.8789H52.851V27.0088H55.1444V24.6079H56.0145V27.0088H58.308V27.8789H56.0145Z" fill="#BFE9F8"/>
<circle cx="79" cy="8.5" r="8" fill="#D2F95F"/>
<path d="M69.8668 30.5V23.7754H69.8453L67.7936 25.2524V24.2319L69.8561 22.7495H70.8014V30.5H69.8668ZM75.5456 30.6289C74.6469 30.6289 73.945 30.2708 73.4401 29.5547C72.9388 28.835 72.6882 27.8574 72.6882 26.6221C72.6882 25.3975 72.9406 24.4253 73.4455 23.7056C73.954 22.9823 74.654 22.6206 75.5456 22.6206C76.4372 22.6206 77.1337 22.9805 77.635 23.7002C78.1399 24.4163 78.3923 25.3885 78.3923 26.6167C78.3923 27.8521 78.1416 28.8296 77.6403 29.5493C77.139 30.269 76.4408 30.6289 75.5456 30.6289ZM74.1545 28.937C74.4839 29.5028 74.9476 29.7856 75.5456 29.7856C76.1436 29.7856 76.6055 29.5046 76.9314 28.9424C77.2572 28.3766 77.4201 27.6032 77.4201 26.6221C77.4201 25.6553 77.2554 24.889 76.926 24.3232C76.5966 23.7539 76.1364 23.4692 75.5456 23.4692C74.9548 23.4692 74.4929 23.7539 74.1599 24.3232C73.8269 24.8926 73.6604 25.6571 73.6604 26.6167C73.6604 27.5978 73.8251 28.3713 74.1545 28.937ZM80.5315 27.3955L83.0022 24.9141H84.1355L81.7132 27.3257L84.2107 30.5H83.1258L81.0525 27.9004L80.5315 28.3945V30.5H79.597V22.7495H80.5315V27.3955ZM87.8378 27.8789V30.3389H86.9677V27.8789H84.6742V27.0088H86.9677V24.6079H87.8378V27.0088H90.1312V27.8789H87.8378Z" fill="#BFE9F8"/>
<circle cx="109" cy="8.5" r="8" fill="#F3D557"/>
<path d="M102.644 30.6289C101.903 30.6289 101.283 30.4194 100.786 30.0005C100.291 29.5815 100.025 29.0426 99.9853 28.3838H100.936C100.979 28.7956 101.16 29.1322 101.478 29.3936C101.797 29.6514 102.189 29.7803 102.655 29.7803C103.181 29.7803 103.609 29.6156 103.938 29.2861C104.271 28.9567 104.438 28.5306 104.438 28.0078C104.438 27.485 104.271 27.0571 103.938 26.7241C103.609 26.3875 103.186 26.2192 102.671 26.2192C102.309 26.2192 101.982 26.2962 101.688 26.4502C101.394 26.6042 101.169 26.8172 101.011 27.0894H100.103L100.528 22.7495H104.964V23.6089H101.323L101.086 26.1333H101.108C101.283 25.9006 101.523 25.7179 101.828 25.5854C102.135 25.453 102.474 25.3867 102.843 25.3867C103.587 25.3867 104.2 25.632 104.68 26.1226C105.163 26.6095 105.405 27.229 105.405 27.981C105.405 28.758 105.147 29.3936 104.631 29.8877C104.116 30.3818 103.453 30.6289 102.644 30.6289ZM107.442 27.3955L109.913 24.9141H111.046L108.624 27.3257L111.121 30.5H110.036L107.963 27.9004L107.442 28.3945V30.5H106.507V22.7495H107.442V27.3955ZM114.748 27.8789V30.3389H113.878V27.8789H111.585V27.0088H113.878V24.6079H114.748V27.0088H117.042V27.8789H114.748Z" fill="#BFE9F8"/>
<circle cx="136" cy="8.5" r="8" fill="#E79C4E"/>
<path d="M127.034 24.9839C127.034 24.3071 127.277 23.745 127.764 23.2974C128.251 22.8462 128.86 22.6206 129.59 22.6206C130.281 22.6206 130.867 22.8265 131.347 23.2383C131.826 23.6501 132.066 24.1532 132.066 24.7476C132.066 25.1772 131.948 25.5908 131.712 25.9883C131.476 26.3857 131.031 26.9211 130.38 27.5942L128.419 29.6191V29.6406H132.195V30.5H127.082V29.834L129.81 26.9604C130.33 26.4126 130.673 25.9972 130.842 25.7144C131.014 25.4315 131.1 25.1289 131.1 24.8066C131.1 24.4342 130.949 24.1174 130.648 23.856C130.351 23.5946 129.99 23.4639 129.563 23.4639C129.109 23.4639 128.729 23.6089 128.425 23.8989C128.12 24.189 127.968 24.5506 127.968 24.9839V24.9893H127.034V24.9839ZM134.34 27.3955L136.811 24.9141H137.944L135.521 27.3257L138.019 30.5H136.934L134.861 27.9004L134.34 28.3945V30.5H133.405V22.7495H134.34V27.3955ZM141.646 27.8789V30.3389H140.776V27.8789H138.483V27.0088H140.776V24.6079H141.646V27.0088H143.94V27.8789H141.646Z" fill="#BFE9F8"/>
<circle cx="162" cy="8.5" r="8" fill="#D65042"/>
<path d="M159.184 25.2363L155.387 27.3848V27.4331L159.184 29.4634V30.4624L154.463 27.8252V27.0625L159.184 24.2373V25.2363ZM162.827 30.5V23.7754H162.806L160.754 25.2524V24.2319L162.816 22.7495H163.762V30.5H162.827ZM166.755 27.3955L169.226 24.9141H170.359L167.937 27.3257L170.434 30.5H169.349L167.276 27.9004L166.755 28.3945V30.5H165.82V22.7495H166.755V27.3955Z" fill="#BFE9F8"/>
</svg>
