<svg width="105" height="105" viewBox="0 0 105 105" fill="none" xmlns="http://www.w3.org/2000/svg">
<path d="M100 55C100 82.6142 77.6142 105 50 105C22.3858 105 0 82.6142 0 55C0 27.3858 22.3858 5 50 5C77.6142 5 100 27.3858 100 55ZM10 55C10 77.0914 27.9086 95 50 95C72.0914 95 90 77.0914 90 55C90 32.9086 72.0914 15 50 15C27.9086 15 10 32.9086 10 55Z" fill="#88F9BA" fill-opacity="0.3"/>
<g filter="url(#filter0_d_152_5605)">
<path d="M50 10C50 7.23858 52.2441 4.97411 54.9917 5.24979C60.6287 5.81538 66.141 7.3362 71.289 9.75865C77.9486 12.8924 83.8342 17.4578 88.5257 23.1288C93.2172 28.7998 96.5988 35.4367 98.4292 42.5655C99.8441 48.0762 100.305 53.7759 99.8044 59.419C99.5603 62.1696 96.9154 63.9496 94.2029 63.4322C91.4904 62.9147 89.7442 60.294 89.9194 57.5381C90.1856 53.3506 89.792 49.1366 88.7433 45.0524C87.279 39.3494 84.5737 34.0399 80.8205 29.5031C77.0674 24.9662 72.3588 21.3139 67.0312 18.8069C63.2158 17.0115 59.1503 15.8352 54.987 15.3121C52.2472 14.9678 50 12.7614 50 10Z" fill="#88F9BA"/>
</g>
<path d="M82 55C82 72.6731 67.6731 87 50 87C32.3269 87 18 72.6731 18 55C18 37.3269 32.3269 23 50 23C67.6731 23 82 37.3269 82 55ZM28.0055 55C28.0055 67.1472 37.8528 76.9945 50 76.9945C62.1472 76.9945 71.9945 67.1472 71.9945 55C71.9945 42.8528 62.1472 33.0055 50 33.0055C37.8528 33.0055 28.0055 42.8528 28.0055 55Z" fill="#F98888" fill-opacity="0.3"/>
<g filter="url(#filter1_d_152_5605)">
<path d="M50 28.008C50 25.2422 52.2556 22.96 54.9876 23.3911C58.135 23.8877 61.1999 24.8531 64.0781 26.2631C68.4605 28.4101 72.2939 31.5309 75.285 35.387C78.276 39.243 80.3455 43.7321 81.3351 48.5108C82.3248 53.2895 82.2083 58.2313 80.9947 62.9581C79.781 67.6849 77.5024 72.0715 74.333 75.7823C71.1636 79.4932 67.1875 82.43 62.7087 84.3681C58.23 86.3063 53.3673 87.1944 48.4926 86.9645C45.2912 86.8135 42.1403 86.183 39.143 85.1019C36.5412 84.1635 35.6641 81.077 36.9965 78.6533C38.329 76.2295 41.3714 75.4082 44.0335 76.1588C45.6362 76.6108 47.2902 76.8806 48.9644 76.9596C52.3133 77.1175 55.654 76.5074 58.7309 75.1759C61.8078 73.8444 64.5394 71.8268 66.7168 69.2775C68.8941 66.7281 70.4596 63.7145 71.2933 60.4672C72.1271 57.2199 72.2071 53.8249 71.5272 50.5419C70.8474 47.2589 69.4256 44.175 67.3708 41.5259C65.3159 38.8767 62.6824 36.7327 59.6716 35.2578C58.1665 34.5204 56.587 33.96 54.9648 33.584C52.2705 32.9593 50 30.7738 50 28.008Z" fill="#F14141"/>
</g>
<defs>
<filter id="filter0_d_152_5605" x="45" y="0.227051" width="60" height="68.2944" filterUnits="userSpaceOnUse" color-interpolation-filters="sRGB">
<feFlood flood-opacity="0" result="BackgroundImageFix"/>
<feColorMatrix in="SourceAlpha" type="matrix" values="0 0 0 0 0 0 0 0 0 0 0 0 0 0 0 0 0 0 127 0" result="hardAlpha"/>
<feOffset/>
<feGaussianBlur stdDeviation="2.5"/>
<feComposite in2="hardAlpha" operator="out"/>
<feColorMatrix type="matrix" values="0 0 0 0 0.533333 0 0 0 0 0.976471 0 0 0 0 0.729412 0 0 0 1 0"/>
<feBlend mode="normal" in2="BackgroundImageFix" result="effect1_dropShadow_152_5605"/>
<feBlend mode="normal" in="SourceGraphic" in2="effect1_dropShadow_152_5605" result="shape"/>
</filter>
<filter id="filter1_d_152_5605" x="32.3799" y="19.3384" width="53.6201" height="71.6616" filterUnits="userSpaceOnUse" color-interpolation-filters="sRGB">
<feFlood flood-opacity="0" result="BackgroundImageFix"/>
<feColorMatrix in="SourceAlpha" type="matrix" values="0 0 0 0 0 0 0 0 0 0 0 0 0 0 0 0 0 0 127 0" result="hardAlpha"/>
<feOffset/>
<feGaussianBlur stdDeviation="2"/>
<feComposite in2="hardAlpha" operator="out"/>
<feColorMatrix type="matrix" values="0 0 0 0 0.945098 0 0 0 0 0.254902 0 0 0 0 0.254902 0 0 0 1 0"/>
<feBlend mode="normal" in2="BackgroundImageFix" result="effect1_dropShadow_152_5605"/>
<feBlend mode="normal" in="SourceGraphic" in2="effect1_dropShadow_152_5605" result="shape"/>
</filter>
</defs>
</svg>
